<?xml version="1.0" encoding="UTF-8" standalone="no" ?>
<!DOCTYPE svg PUBLIC "-//W3C//DTD SVG 1.1//EN" "http://www.w3.org/Graphics/SVG/1.1/DTD/svg11.dtd">
<svg xmlns="http://www.w3.org/2000/svg" xmlns:xlink="http://www.w3.org/1999/xlink" version="1.1" width="805.755625" height="597.2763199999999" xml:space="preserve">
<desc>Created with Fabric.js 1.6.0-rc.1</desc>
<defs></defs>
<g style="stroke: none; stroke-width: 1; stroke-dasharray: none; stroke-linecap: butt; stroke-linejoin: miter; stroke-miterlimit: 10; fill: none; fill-rule: nonzero; opacity: 1;" transform="translate(10 21.52000000000001) scale(0.45 0.45)" >
  <path d="M 790.629 572.33 l -35.876 25.062 l -17.611 1.676 l 35.876 -25.06 z" style="stroke: none; stroke-width: 1; stroke-dasharray: none; stroke-linecap: butt; stroke-linejoin: miter; stroke-miterlimit: 10; fill: #8c6239; fill-rule: nonzero; opacity: 1;" transform="" stroke-linecap="round" />
  <path d="M 672.306 432.82 l -35.876 25.061 l 7.388 -17.066 l 35.876 -25.06 z" style="stroke: none; stroke-width: 1; stroke-dasharray: none; stroke-linecap: butt; stroke-linejoin: miter; stroke-miterlimit: 10; fill: #603813; fill-rule: nonzero; opacity: 1;" transform="" stroke-linecap="round" />
  <path d="M 795.479 633.906 l -35.875 25.061 l -22.441 -12.693 l 35.876 -25.06 z" style="stroke: none; stroke-width: 1; stroke-dasharray: none; stroke-linecap: butt; stroke-linejoin: miter; stroke-miterlimit: 10; fill: #8c6239; fill-rule: nonzero; opacity: 1;" transform="" stroke-linecap="round" />
  <path d="M 629.064 418.853 l -35.876 25.06 l -4.938 -27.017 l 35.876 -25.06 z M 745.092 591.497 c 0.149 -0.5 0.284 -1.014 0.416 -1.53 c 0.061 -0.238 0.128 -0.468 0.185 -0.709 c 0.178 -0.759 0.338 -1.534 0.476 -2.328 c 0.027 -0.154 0.046 -0.316 0.071 -0.473 c 0.106 -0.652 0.204 -1.313 0.285 -1.989 c 0.008 -0.069 0.021 -0.135 0.029 -0.205 c 0.036 -0.311 0.057 -0.634 0.087 -0.948 c 0.037 -0.391 0.078 -0.779 0.107 -1.177 c 0.029 -0.407 0.047 -0.824 0.068 -1.238 c 0.02 -0.397 0.043 -0.793 0.055 -1.196 c 0.013 -0.426 0.014 -0.861 0.017 -1.294 c 0.003 -0.405 0.01 -0.809 0.005 -1.22 c -0.005 -0.446 -0.022 -0.9 -0.037 -1.354 c -0.013 -0.411 -0.022 -0.819 -0.044 -1.236 c -0.005 -0.104 -0.005 -0.203 -0.011 -0.307 c -0.021 -0.383 -0.058 -0.775 -0.085 -1.163 c -0.027 -0.386 -0.051 -0.769 -0.085 -1.158 c -0.043 -0.501 -0.1 -1.011 -0.153 -1.519 c -0.042 -0.394 -0.079 -0.784 -0.128 -1.183 c -0.062 -0.513 -0.138 -1.034 -0.211 -1.554 c -0.057 -0.405 -0.108 -0.808 -0.172 -1.217 c -0.08 -0.517 -0.174 -1.04 -0.264 -1.563 c -0.073 -0.425 -0.141 -0.846 -0.222 -1.274 c -0.012 -0.067 -0.021 -0.132 -0.034 -0.199 c -0.065 -0.346 -0.146 -0.7 -0.216 -1.049 c -0.118 -0.587 -0.233 -1.172 -0.364 -1.766 c -0.095 -0.435 -0.201 -0.874 -0.304 -1.312 c -0.136 -0.582 -0.27 -1.162 -0.417 -1.75 c -0.113 -0.453 -0.238 -0.912 -0.358 -1.369 c -0.154 -0.583 -0.309 -1.166 -0.475 -1.755 c -0.129 -0.461 -0.268 -0.925 -0.404 -1.389 c -0.177 -0.6 -0.354 -1.2 -0.543 -1.806 c -0.052 -0.166 -0.097 -0.329 -0.149 -0.495 c -0.063 -0.196 -0.137 -0.398 -0.2 -0.596 a 139.301 139.301 0 0 0 -1.11 -3.301 c -0.101 -0.286 -0.196 -0.569 -0.299 -0.856 a 139.602 139.602 0 0 0 -1.53 -4.063 c -0.112 -0.285 -0.232 -0.573 -0.348 -0.859 a 144.81 144.81 0 0 0 -1.41 -3.389 c -0.159 -0.37 -0.316 -0.738 -0.479 -1.109 a 156.475 156.475 0 0 0 -1.941 -4.262 c -0.311 -0.653 -0.639 -1.312 -0.962 -1.968 c -0.207 -0.422 -0.405 -0.841 -0.617 -1.264 a 172.392 172.392 0 0 0 -3.868 -7.276 c -0.235 -0.418 -0.481 -0.828 -0.72 -1.244 c -0.505 -0.883 -1.009 -1.768 -1.527 -2.64 c -0.301 -0.505 -0.612 -0.999 -0.917 -1.499 c -0.471 -0.774 -0.938 -1.551 -1.418 -2.316 c -0.334 -0.531 -0.68 -1.052 -1.019 -1.578 c -0.464 -0.722 -0.924 -1.447 -1.396 -2.16 c -0.355 -0.535 -0.721 -1.06 -1.081 -1.591 c -0.47 -0.692 -0.935 -1.388 -1.412 -2.071 c -0.364 -0.521 -0.737 -1.03 -1.105 -1.546 c -0.485 -0.68 -0.967 -1.363 -1.459 -2.033 c -0.37 -0.504 -0.748 -0.995 -1.121 -1.493 c -0.502 -0.668 -1.001 -1.34 -1.509 -1.998 c -0.371 -0.48 -0.749 -0.949 -1.124 -1.424 c -0.467 -0.594 -0.931 -1.194 -1.403 -1.779 c -0.048 -0.059 -0.097 -0.114 -0.144 -0.173 a 174.823 174.823 0 0 0 -3.119 -3.739 c -0.283 -0.33 -0.571 -0.65 -0.856 -0.979 a 167.397 167.397 0 0 0 -2.377 -2.681 c -0.377 -0.416 -0.756 -0.825 -1.136 -1.235 a 167.54 167.54 0 0 0 -2.223 -2.356 c -0.375 -0.39 -0.749 -0.78 -1.125 -1.164 a 162.14 162.14 0 0 0 -2.598 -2.585 c -0.196 -0.191 -0.39 -0.395 -0.587 -0.584 l -0.173 -0.163 c -0.369 -0.354 -0.74 -0.695 -1.109 -1.044 a 142.75 142.75 0 0 0 -1.727 -1.61 c -0.393 -0.358 -0.786 -0.706 -1.179 -1.058 c -0.558 -0.498 -1.114 -0.994 -1.674 -1.479 c -0.405 -0.352 -0.812 -0.694 -1.219 -1.038 a 122.045 122.045 0 0 0 -2.884 -2.378 c -0.29 -0.232 -0.58 -0.476 -0.871 -0.704 c -0.286 -0.225 -0.572 -0.437 -0.857 -0.658 c -0.339 -0.261 -0.676 -0.521 -1.015 -0.777 a 134.5 134.5 0 0 0 -1.901 -1.408 c -0.299 -0.217 -0.598 -0.438 -0.896 -0.651 c -0.855 -0.609 -1.71 -1.203 -2.564 -1.777 c -0.071 -0.047 -0.143 -0.099 -0.213 -0.146 a 109.31 109.31 0 0 0 -2.53 -1.641 c -0.082 -0.052 -0.163 -0.098 -0.245 -0.149 c -0.284 -0.177 -0.567 -0.344 -0.852 -0.517 a 93.997 93.997 0 0 0 -1.929 -1.149 c -0.336 -0.194 -0.671 -0.381 -1.006 -0.569 a 86.76 86.76 0 0 0 -2.799 -1.506 a 81.877 81.877 0 0 0 -1.856 -0.921 c -0.298 -0.143 -0.596 -0.291 -0.894 -0.43 c -0.116 -0.054 -0.233 -0.114 -0.35 -0.168 c -0.449 -0.206 -0.893 -0.387 -1.34 -0.581 c -0.394 -0.171 -0.789 -0.351 -1.181 -0.513 c -0.574 -0.237 -1.144 -0.451 -1.714 -0.668 c -0.364 -0.138 -0.73 -0.287 -1.093 -0.417 c -0.628 -0.226 -1.249 -0.424 -1.871 -0.624 c -0.299 -0.096 -0.601 -0.204 -0.897 -0.295 a 52.15 52.15 0 0 0 -2.489 -0.683 c -0.079 -0.02 -0.159 -0.045 -0.237 -0.064 a 46.605 46.605 0 0 0 -2.45 -0.52 l -0.504 -0.093 a 41.641 41.641 0 0 0 -2.354 -0.345 c -0.118 -0.013 -0.234 -0.021 -0.353 -0.034 a 37.168 37.168 0 0 0 -2.127 -0.162 c -0.122 -0.006 -0.246 -0.015 -0.367 -0.02 a 33.32 33.32 0 0 0 -2.235 -0.002 c -0.155 0.005 -0.31 0.014 -0.464 0.021 a 29.47 29.47 0 0 0 -2.741 0.247 c -3.832 0.548 -7.148 1.845 -9.943 3.796 l -35.876 25.062 c 2.795 -1.952 6.111 -3.249 9.943 -3.796 a 29.73 29.73 0 0 1 2.73 -0.247 a 33.546 33.546 0 0 1 2.701 -0.019 c 0.13 0.005 0.261 0.015 0.391 0.021 c 0.693 0.033 1.393 0.086 2.099 0.16 c 0.124 0.013 0.247 0.022 0.371 0.036 c 0.774 0.089 1.557 0.206 2.347 0.344 c 0.168 0.029 0.337 0.062 0.507 0.093 c 0.809 0.151 1.623 0.319 2.446 0.52 c 0.1 0.024 0.2 0.057 0.3 0.081 c 0.802 0.201 1.608 0.419 2.423 0.665 c 0.319 0.097 0.643 0.213 0.963 0.316 c 0.602 0.193 1.201 0.385 1.809 0.603 c 0.366 0.131 0.737 0.282 1.106 0.423 c 0.567 0.216 1.135 0.429 1.707 0.665 c 0.385 0.158 0.772 0.335 1.159 0.503 c 0.57 0.247 1.14 0.492 1.713 0.76 c 0.295 0.138 0.592 0.284 0.889 0.427 c 0.614 0.296 1.23 0.6 1.848 0.917 a 83.124 83.124 0 0 1 2.805 1.51 c 0.335 0.188 0.67 0.375 1.006 0.569 c 0.648 0.374 1.299 0.765 1.949 1.161 c 0.275 0.168 0.551 0.33 0.827 0.502 c 0.928 0.579 1.857 1.176 2.788 1.798 c 0.051 0.033 0.102 0.07 0.151 0.104 c 0.876 0.587 1.752 1.195 2.629 1.82 c 0.288 0.205 0.576 0.42 0.864 0.629 a 114.713 114.713 0 0 1 4.684 3.578 c 0.401 0.321 0.803 0.645 1.204 0.974 c 0.563 0.462 1.124 0.933 1.685 1.408 c 0.396 0.336 0.793 0.67 1.188 1.013 c 0.573 0.496 1.144 1.006 1.715 1.516 c 0.379 0.34 0.759 0.674 1.137 1.02 a 154.64 154.64 0 0 1 1.797 1.676 c 0.346 0.326 0.693 0.646 1.038 0.978 c 0.271 0.262 0.541 0.534 0.813 0.799 a 129.48 129.48 0 0 1 3.695 3.724 c 0.738 0.768 1.473 1.546 2.203 2.335 c 0.382 0.413 0.764 0.825 1.144 1.244 c 0.806 0.888 1.604 1.791 2.398 2.705 c 0.274 0.315 0.552 0.624 0.825 0.943 a 175.419 175.419 0 0 1 3.146 3.772 c 0.468 0.578 0.929 1.169 1.392 1.755 c 0.423 0.536 0.85 1.065 1.269 1.608 c 0.495 0.641 0.98 1.296 1.47 1.946 c 0.383 0.511 0.771 1.016 1.15 1.532 c 0.509 0.691 1.006 1.396 1.507 2.099 c 0.351 0.492 0.707 0.978 1.054 1.475 c 0.521 0.745 1.029 1.505 1.541 2.261 c 0.315 0.466 0.637 0.925 0.948 1.395 c 0.537 0.811 1.061 1.633 1.587 2.454 c 0.275 0.43 0.557 0.853 0.829 1.286 c 0.556 0.883 1.096 1.778 1.638 2.674 c 0.231 0.382 0.47 0.758 0.698 1.143 c 0.575 0.967 1.135 1.945 1.693 2.925 c 0.185 0.324 0.376 0.643 0.559 0.968 a 177.444 177.444 0 0 1 3.889 7.317 c 0.066 0.132 0.128 0.263 0.193 0.395 c 0.479 0.962 0.948 1.921 1.401 2.876 a 156.504 156.504 0 0 1 1.9 4.171 c 0.168 0.383 0.331 0.764 0.495 1.146 c 0.479 1.114 0.94 2.223 1.384 3.324 c 0.123 0.307 0.252 0.614 0.372 0.92 a 142.705 142.705 0 0 1 1.515 4.021 c 0.112 0.313 0.216 0.621 0.325 0.933 c 0.377 1.076 0.737 2.145 1.078 3.206 c 0.126 0.39 0.254 0.781 0.375 1.169 c 0.178 0.571 0.346 1.138 0.513 1.705 c 0.146 0.494 0.293 0.989 0.432 1.479 c 0.157 0.562 0.305 1.117 0.451 1.673 c 0.128 0.481 0.258 0.964 0.378 1.441 c 0.142 0.566 0.271 1.126 0.402 1.688 c 0.106 0.457 0.218 0.916 0.317 1.369 c 0.126 0.575 0.237 1.142 0.352 1.711 c 0.088 0.433 0.182 0.87 0.262 1.299 c 0.076 0.411 0.142 0.815 0.212 1.223 c 0.094 0.54 0.19 1.081 0.272 1.614 c 0.062 0.398 0.112 0.789 0.168 1.184 c 0.074 0.529 0.15 1.06 0.214 1.581 c 0.049 0.4 0.087 0.794 0.129 1.189 c 0.054 0.503 0.108 1.007 0.152 1.503 c 0.035 0.415 0.061 0.822 0.089 1.232 c 0.033 0.461 0.067 0.923 0.09 1.377 c 0.023 0.445 0.034 0.883 0.048 1.322 c 0.014 0.43 0.03 0.861 0.035 1.284 c 0.005 0.42 -0.002 0.83 -0.005 1.243 c -0.004 0.428 -0.004 0.858 -0.017 1.279 c -0.012 0.403 -0.035 0.797 -0.055 1.193 c -0.021 0.416 -0.039 0.834 -0.068 1.243 c -0.029 0.394 -0.069 0.778 -0.106 1.165 c -0.038 0.391 -0.072 0.784 -0.118 1.167 c -0.08 0.672 -0.178 1.329 -0.283 1.979 c -0.026 0.159 -0.045 0.323 -0.072 0.48 a 40.743 40.743 0 0 1 -0.476 2.328 c -0.057 0.239 -0.124 0.469 -0.184 0.705 a 38.132 38.132 0 0 1 -0.418 1.534 c -0.084 0.279 -0.177 0.55 -0.267 0.823 c -0.146 0.444 -0.295 0.884 -0.456 1.313 a 33.844 33.844 0 0 1 -0.714 1.747 c -0.145 0.325 -0.298 0.642 -0.452 0.956 c -0.126 0.256 -0.251 0.512 -0.383 0.761 c -0.164 0.31 -0.338 0.61 -0.512 0.91 c -0.139 0.236 -0.274 0.476 -0.418 0.705 c -0.186 0.297 -0.381 0.581 -0.576 0.866 c -0.149 0.217 -0.294 0.438 -0.449 0.647 c -0.208 0.284 -0.429 0.555 -0.648 0.826 c -0.156 0.194 -0.309 0.394 -0.471 0.581 c -0.237 0.275 -0.488 0.535 -0.737 0.797 c -0.159 0.167 -0.313 0.341 -0.477 0.502 c -0.283 0.279 -0.582 0.541 -0.88 0.803 c -0.144 0.127 -0.28 0.262 -0.428 0.385 c -0.452 0.376 -0.918 0.734 -1.401 1.072 l 35.876 -25.061 c 0.483 -0.338 0.949 -0.696 1.401 -1.072 c 0.147 -0.123 0.284 -0.258 0.428 -0.385 c 0.298 -0.262 0.597 -0.523 0.88 -0.803 c 0.164 -0.161 0.317 -0.335 0.477 -0.502 c 0.249 -0.262 0.5 -0.521 0.737 -0.797 c 0.162 -0.188 0.313 -0.387 0.471 -0.58 c 0.22 -0.272 0.44 -0.543 0.649 -0.827 c 0.154 -0.21 0.299 -0.43 0.447 -0.646 c 0.195 -0.286 0.392 -0.571 0.577 -0.868 c 0.144 -0.229 0.279 -0.468 0.417 -0.704 c 0.175 -0.3 0.349 -0.602 0.514 -0.912 c 0.131 -0.248 0.256 -0.503 0.381 -0.758 c 0.155 -0.315 0.309 -0.633 0.454 -0.959 c 0.118 -0.265 0.23 -0.535 0.343 -0.807 c 0.078 -0.19 0.165 -0.372 0.24 -0.565 c 0.047 -0.121 0.084 -0.252 0.13 -0.374 c 0.161 -0.428 0.311 -0.867 0.456 -1.31 c 0.088 -0.279 0.181 -0.551 0.266 -0.831 z" style="stroke: none; stroke-width: 1; stroke-dasharray: none; stroke-linecap: butt; stroke-linejoin: miter; stroke-miterlimit: 10; fill: #603813; fill-rule: nonzero; opacity: 1;" transform="" stroke-linecap="round" />
  <path d="M 777.269 664.485 l -35.876 25.061 a 37.997 37.997 0 0 1 -6.664 3.716 l 35.876 -25.061 a 38.069 38.069 0 0 0 6.664 -3.716" style="stroke: none; stroke-width: 1; stroke-dasharray: none; stroke-linecap: butt; stroke-linejoin: miter; stroke-miterlimit: 10; fill: #49331e; fill-rule: nonzero; opacity: 1;" transform="" stroke-linecap="round" />
  <path d="M 584.572 405.122 l -35.876 25.061 a 38.133 38.133 0 0 1 6.969 -6.285 l 35.876 -25.061 a 38.166 38.166 0 0 0 -6.969 6.285" style="stroke: none; stroke-width: 1; stroke-dasharray: none; stroke-linecap: butt; stroke-linejoin: miter; stroke-miterlimit: 10; fill: #49331e; fill-rule: nonzero; opacity: 1;" transform="" stroke-linecap="round" />
  <path d="M 770.604 668.201 l -35.875 25.061 l -21.402 -23.632 l 35.876 -25.061 z" style="stroke: none; stroke-width: 1; stroke-dasharray: none; stroke-linecap: butt; stroke-linejoin: miter; stroke-miterlimit: 10; fill: #8c6239; fill-rule: nonzero; opacity: 1;" transform="" stroke-linecap="round" />
  <path d="M 600.538 434.701 l -35.876 25.061 l -15.966 -29.579 l 35.876 -25.061 z" style="stroke: none; stroke-width: 1; stroke-dasharray: none; stroke-linecap: butt; stroke-linejoin: miter; stroke-miterlimit: 10; fill: #754c24; fill-rule: nonzero; opacity: 1;" transform="" stroke-linecap="round" />
  <path d="M 749.203 644.569 l -35.876 25.061 a 38.357 38.357 0 0 1 -4.536 0.847 a 43.811 43.811 0 0 1 -4.607 0.307 l 35.877 -25.061 a 43.507 43.507 0 0 0 4.606 -0.307 a 37.816 37.816 0 0 0 4.536 -0.847 z" style="stroke: none; stroke-width: 1; stroke-dasharray: none; stroke-linecap: butt; stroke-linejoin: miter; stroke-miterlimit: 10; fill: #603813; fill-rule: nonzero; opacity: 1;" transform=" matrix(1 0 0 1 0 0) " stroke-linecap="round" />
  <path d="M 749.203 644.569 l -35.876 25.061 a 38.357 38.357 0 0 1 -4.536 0.847 a 43.811 43.811 0 0 1 -4.607 0.307 l 35.877 -25.061 a 43.507 43.507 0 0 0 4.606 -0.307 a 37.816 37.816 0 0 0 4.536 -0.847" style="stroke: none; stroke-width: 1; stroke-dasharray: none; stroke-linecap: butt; stroke-linejoin: miter; stroke-miterlimit: 10; fill: #603813; fill-rule: nonzero; opacity: 1;" transform="" stroke-linecap="round" />
  <path d="M 597.05 442.023 l -35.876 25.061 c 0.971 -2.637 2.134 -5.083 3.488 -7.322 l 35.876 -25.061 c -1.354 2.239 -2.517 4.686 -3.488 7.322 z" style="stroke: none; stroke-width: 1; stroke-dasharray: none; stroke-linecap: butt; stroke-linejoin: miter; stroke-miterlimit: 10; fill: #603813; fill-rule: nonzero; opacity: 1;" transform=" matrix(1 0 0 1 0 0) " stroke-linecap="round" />
  <path d="M 597.05 442.023 l -35.876 25.061 c 0.101 -0.273 0.203 -0.544 0.308 -0.813 l 35.876 -25.062 c -0.105 0.27 -0.208 0.541 -0.308 0.814" style="stroke: none; stroke-width: 1; stroke-dasharray: none; stroke-linecap: butt; stroke-linejoin: miter; stroke-miterlimit: 10; fill: #603813; fill-rule: nonzero; opacity: 1;" transform="" stroke-linecap="round" />
  <path d="M 597.357 441.21 l -35.876 25.062 a 41.832 41.832 0 0 1 3.181 -6.51 l 35.876 -25.061 a 42 42 0 0 0 -3.181 6.509" style="stroke: none; stroke-width: 1; stroke-dasharray: none; stroke-linecap: butt; stroke-linejoin: miter; stroke-miterlimit: 10; fill: #603813; fill-rule: nonzero; opacity: 1;" transform="" stroke-linecap="round" />
  <path d="M 722.505 665.844 l -35.876 25.06 l -14.725 -28.402 l 35.876 -25.061 z" style="stroke: none; stroke-width: 1; stroke-dasharray: none; stroke-linecap: butt; stroke-linejoin: miter; stroke-miterlimit: 10; fill: #8c6239; fill-rule: nonzero; opacity: 1;" transform="" stroke-linecap="round" />
  <path d="M 702.679 695.595 c 0.343 0.066 0.687 0.139 1.028 0.2 c 0.582 0.105 1.16 0.197 1.737 0.289 c 0.292 0.046 0.586 0.099 0.876 0.141 a 71.72 71.72 0 0 0 2.575 0.331 l 35.876 -25.061 a 71.252 71.252 0 0 1 -2.572 -0.33 c -0.304 -0.045 -0.611 -0.1 -0.916 -0.148 c -0.562 -0.089 -1.124 -0.178 -1.689 -0.28 c -0.359 -0.065 -0.721 -0.141 -1.081 -0.211 c -0.52 -0.102 -1.04 -0.203 -1.563 -0.316 c -0.374 -0.08 -0.75 -0.17 -1.126 -0.256 a 87.668 87.668 0 0 1 -1.5 -0.356 c -0.556 -0.139 -1.114 -0.288 -1.673 -0.438 c -0.414 -0.111 -0.827 -0.22 -1.243 -0.338 c -0.587 -0.167 -1.179 -0.348 -1.77 -0.527 c -0.391 -0.119 -0.78 -0.232 -1.173 -0.357 c -0.661 -0.211 -1.326 -0.438 -1.991 -0.664 c -0.325 -0.11 -0.649 -0.214 -0.976 -0.328 c -0.994 -0.35 -1.992 -0.715 -2.994 -1.1 l -35.876 25.061 c 1.004 0.386 2.003 0.751 2.998 1.101 c 0.313 0.11 0.624 0.209 0.937 0.315 c 0.679 0.231 1.356 0.463 2.031 0.677 c 0.384 0.123 0.766 0.233 1.148 0.351 a 92.88 92.88 0 0 0 1.793 0.534 c 0.413 0.118 0.823 0.225 1.234 0.336 c 0.56 0.15 1.119 0.301 1.675 0.438 c 0.144 0.036 0.288 0.078 0.431 0.113 c 0.365 0.089 0.726 0.164 1.089 0.248 c 0.366 0.084 0.733 0.171 1.098 0.25 c 0.542 0.115 1.079 0.219 1.617 0.325 z M 571.558 447.407 a 111.202 111.202 0 0 1 0.083 -3.73 a 93.95 93.95 0 0 1 0.141 -2.591 c 0.02 -0.303 0.034 -0.608 0.058 -0.908 c 0.086 -1.141 0.19 -2.267 0.315 -3.375 c 0.02 -0.166 0.044 -0.327 0.063 -0.492 a 83.296 83.296 0 0 1 0.596 -4.14 c 0.2 -1.177 0.415 -2.34 0.663 -3.474 l -35.876 25.062 a 75.353 75.353 0 0 0 -0.662 3.47 c -0.056 0.324 -0.107 0.652 -0.159 0.98 a 83.918 83.918 0 0 0 -0.43 3.09 c -0.018 0.15 -0.044 0.294 -0.062 0.444 c -0.006 0.048 -0.008 0.098 -0.014 0.146 a 92.393 92.393 0 0 0 -0.313 3.345 c -0.023 0.303 -0.038 0.611 -0.059 0.916 c -0.057 0.858 -0.105 1.724 -0.141 2.599 c -0.016 0.388 -0.027 0.778 -0.039 1.169 c -0.025 0.85 -0.039 1.707 -0.043 2.571 c -0.002 0.36 -0.008 0.718 -0.006 1.081 c 0.005 1.215 0.023 2.439 0.067 3.683 l 35.876 -25.061 a 114 114 0 0 1 -0.067 -3.674 c 0.001 -0.373 0.007 -0.741 0.009 -1.111 z" style="stroke: none; stroke-width: 1; stroke-dasharray: none; stroke-linecap: butt; stroke-linejoin: miter; stroke-miterlimit: 10; fill: #603813; fill-rule: nonzero; opacity: 1;" transform="" stroke-linecap="round" />
  <path d="M 594.17 476.261 l -35.876 25.06 l -22.551 -24.069 l 35.876 -25.061 z" style="stroke: none; stroke-width: 1; stroke-dasharray: none; stroke-linecap: butt; stroke-linejoin: miter; stroke-miterlimit: 10; fill: #754c24; fill-rule: nonzero; opacity: 1;" transform="" stroke-linecap="round" />
  <path d="M 707.78 637.441 l -35.876 25.061 a 129.31 129.31 0 0 1 -11.876 -6.558 l 35.876 -25.062 a 129.325 129.325 0 0 0 11.876 6.559 z" style="stroke: none; stroke-width: 1; stroke-dasharray: none; stroke-linecap: butt; stroke-linejoin: miter; stroke-miterlimit: 10; fill: #603813; fill-rule: nonzero; opacity: 1;" transform=" matrix(1 0 0 1 0 0) " stroke-linecap="round" />
  <path d="M 707.78 637.441 l -35.876 25.061 a 129.31 129.31 0 0 1 -11.876 -6.558 l 35.876 -25.062 a 129.325 129.325 0 0 0 11.876 6.559" style="stroke: none; stroke-width: 1; stroke-dasharray: none; stroke-linecap: butt; stroke-linejoin: miter; stroke-miterlimit: 10; fill: #603813; fill-rule: nonzero; opacity: 1;" transform="" stroke-linecap="round" />
  <path d="M 596.145 488.433 l -35.876 25.061 a 131.628 131.628 0 0 1 -1.975 -12.172 l 35.876 -25.061 c 0.44 3.921 1.101 7.987 1.975 12.172 z" style="stroke: none; stroke-width: 1; stroke-dasharray: none; stroke-linecap: butt; stroke-linejoin: miter; stroke-miterlimit: 10; fill: #603813; fill-rule: nonzero; opacity: 1;" transform=" matrix(1 0 0 1 0 0) " stroke-linecap="round" />
  <path d="M 596.145 488.433 l -35.876 25.061 c -0.188 -0.903 -0.367 -1.801 -0.536 -2.693 l 35.876 -25.061 c 0.168 0.891 0.347 1.789 0.536 2.693 M 595.608 485.739 L 559.732 510.8 a 128.008 128.008 0 0 1 -1.438 -9.479 l 35.876 -25.061 a 128.62 128.62 0 0 0 1.438 9.479" style="stroke: none; stroke-width: 1; stroke-dasharray: none; stroke-linecap: butt; stroke-linejoin: miter; stroke-miterlimit: 10; fill: #603813; fill-rule: nonzero; opacity: 1;" transform="" stroke-linecap="round" />
  <path d="M 660.042 601.556 l -35.876 25.061 a 250.796 250.796 0 0 1 -11.146 -12.167 l 35.876 -25.061 a 251.307 251.307 0 0 0 11.146 12.167 z" style="stroke: none; stroke-width: 1; stroke-dasharray: none; stroke-linecap: butt; stroke-linejoin: miter; stroke-miterlimit: 10; fill: #754c24; fill-rule: nonzero; opacity: 1;" transform=" matrix(1 0 0 1 0 0) " stroke-linecap="round" />
  <path d="M 660.042 601.556 l -35.876 25.061 a 250.796 250.796 0 0 1 -11.146 -12.167 l 35.876 -25.061 a 251.307 251.307 0 0 0 11.146 12.167" style="stroke: none; stroke-width: 1; stroke-dasharray: none; stroke-linecap: butt; stroke-linejoin: miter; stroke-miterlimit: 10; fill: #754c24; fill-rule: nonzero; opacity: 1;" transform="" stroke-linecap="round" />
  <path d="M 619.137 546.86 l -35.876 25.061 a 270.342 270.342 0 0 1 -3.301 -6.035 a 251.241 251.241 0 0 1 -4.075 -8.063 l 35.877 -25.061 a 251.196 251.196 0 0 0 4.074 8.063 a 268.137 268.137 0 0 0 3.301 6.035 z" style="stroke: none; stroke-width: 1; stroke-dasharray: none; stroke-linecap: butt; stroke-linejoin: miter; stroke-miterlimit: 10; fill: #754c24; fill-rule: nonzero; opacity: 1;" transform=" matrix(1 0 0 1 0 0) " stroke-linecap="round" />
  <path d="M 619.137 546.86 l -35.876 25.061 a 270.342 270.342 0 0 1 -3.301 -6.035 a 251.241 251.241 0 0 1 -4.075 -8.063 l 35.877 -25.061 a 251.196 251.196 0 0 0 4.074 8.063 a 268.137 268.137 0 0 0 3.301 6.035" style="stroke: none; stroke-width: 1; stroke-dasharray: none; stroke-linecap: butt; stroke-linejoin: miter; stroke-miterlimit: 10; fill: #754c24; fill-rule: nonzero; opacity: 1;" transform="" stroke-linecap="round" />
  <path d="M 648.701 669.353 a 213.137 213.137 0 0 0 4.204 3.043 l 35.877 -25.061 a 211.657 211.657 0 0 1 -4.19 -3.032 l -1.054 -0.784 a 224.007 224.007 0 0 1 -4.163 -3.188 c -0.15 -0.118 -0.301 -0.242 -0.452 -0.361 a 246.11 246.11 0 0 1 -3.062 -2.46 c -0.382 -0.313 -0.764 -0.631 -1.146 -0.946 a 240.296 240.296 0 0 1 -2.407 -2.016 c -0.415 -0.353 -0.83 -0.706 -1.245 -1.063 a 245.86 245.86 0 0 1 -2.425 -2.114 c -0.368 -0.324 -0.736 -0.645 -1.103 -0.972 a 270.927 270.927 0 0 1 -3.477 -3.149 l -35.876 25.062 a 272.896 272.896 0 0 0 3.484 3.157 c 0.356 0.316 0.713 0.628 1.069 0.941 c 0.82 0.724 1.642 1.441 2.465 2.148 c 0.405 0.349 0.811 0.694 1.217 1.039 c 0.809 0.687 1.618 1.364 2.429 2.034 c 0.379 0.313 0.756 0.628 1.135 0.937 c 1.016 0.831 2.033 1.647 3.051 2.452 c 0.137 0.107 0.273 0.222 0.41 0.329 c 0.019 0.015 0.038 0.028 0.057 0.044 a 228.655 228.655 0 0 0 5.202 3.96 z" style="stroke: none; stroke-width: 1; stroke-dasharray: none; stroke-linecap: butt; stroke-linejoin: miter; stroke-miterlimit: 10; fill: #603813; fill-rule: nonzero; opacity: 1;" transform="" stroke-linecap="round" />
  <path d="M 664.06 627.25 l -35.876 25.062 l -4.018 -25.696 l 35.876 -25.06 z" style="stroke: none; stroke-width: 1; stroke-dasharray: none; stroke-linecap: butt; stroke-linejoin: miter; stroke-miterlimit: 10; fill: #8c6239; fill-rule: nonzero; opacity: 1;" transform="" stroke-linecap="round" />
  <path d="M 611.762 532.762 l -35.877 25.06 l -22.991 -12.213 l 35.876 -25.06 z" style="stroke: none; stroke-width: 1; stroke-dasharray: none; stroke-linecap: butt; stroke-linejoin: miter; stroke-miterlimit: 10; fill: #3b2400; fill-rule: nonzero; opacity: 1;" transform="" stroke-linecap="round" />
  <path d="M 546.265 528.568 c 0.546 1.566 1.108 3.14 1.696 4.723 c 0.066 0.178 0.128 0.354 0.194 0.531 a 259.24 259.24 0 0 0 2.01 5.184 c 0.171 0.431 0.346 0.861 0.521 1.293 c 0.713 1.763 1.443 3.53 2.208 5.311 l 35.876 -25.061 a 269.628 269.628 0 0 1 -2.214 -5.324 c -0.171 -0.423 -0.342 -0.846 -0.51 -1.267 a 267.463 267.463 0 0 1 -2.018 -5.203 c -0.063 -0.168 -0.12 -0.334 -0.183 -0.501 a 247.17 247.17 0 0 1 -1.707 -4.752 a 229.73 229.73 0 0 1 -2.086 -6.251 c -0.259 -0.815 -0.507 -1.626 -0.753 -2.437 c -0.11 -0.36 -0.226 -0.724 -0.333 -1.083 c -0.356 -1.193 -0.701 -2.38 -1.031 -3.561 l -35.876 25.061 c 0.33 1.179 0.675 2.365 1.03 3.556 c 0.112 0.376 0.232 0.756 0.348 1.133 c 0.221 0.727 0.439 1.451 0.67 2.183 c 0.021 0.067 0.046 0.136 0.067 0.203 a 233.667 233.667 0 0 0 2.091 6.262 z" style="stroke: none; stroke-width: 1; stroke-dasharray: none; stroke-linecap: butt; stroke-linejoin: miter; stroke-miterlimit: 10; fill: #754c24; fill-rule: nonzero; opacity: 1;" transform="" stroke-linecap="round" />
  <path d="M 648.896 589.389 l -35.876 25.06 l -17.268 2.64 l 35.876 -25.062 z M 611.105 562.907 l -35.876 25.061 l 8.032 -16.047 l 35.876 -25.061 z" style="stroke: none; stroke-width: 1; stroke-dasharray: none; stroke-linecap: butt; stroke-linejoin: miter; stroke-miterlimit: 10; fill: #603813; fill-rule: nonzero; opacity: 1;" transform="" stroke-linecap="round" />
  <path d="M 631.628 592.027 l -35.876 25.062 a 331.73 331.73 0 0 1 -20.522 -29.121 l 35.876 -25.061 a 331.415 331.415 0 0 0 20.522 29.12 z" style="stroke: none; stroke-width: 1; stroke-dasharray: none; stroke-linecap: butt; stroke-linejoin: miter; stroke-miterlimit: 10; fill: #8c6239; fill-rule: nonzero; opacity: 1;" transform=" matrix(1 0 0 1 0 0) " stroke-linecap="round" />
  <path d="M 631.628 592.027 l -35.876 25.062 a 331.73 331.73 0 0 1 -20.522 -29.121 l 35.876 -25.061 a 331.415 331.415 0 0 0 20.522 29.12" style="stroke: none; stroke-width: 1; stroke-dasharray: none; stroke-linecap: butt; stroke-linejoin: miter; stroke-miterlimit: 10; fill: #8c6239; fill-rule: nonzero; opacity: 1;" transform="" stroke-linecap="round" />
  <path d="M 753.788 523.738 a 252.178 252.178 0 0 1 3.009 5.877 l 22.775 12.102 c 4.584 10.539 8.265 20.788 11.057 30.613 l -17.611 1.678 a 135.713 135.713 0 0 1 2.277 12.98 l 21.854 23.326 c 0.361 8.576 -0.202 16.491 -1.669 23.592 l -22.44 -12.692 c -1.021 3.068 -2.305 5.882 -3.828 8.438 l 15.268 28.275 c -3.794 4.434 -8.42 7.908 -13.874 10.273 l -21.401 -23.632 a 38.357 38.357 0 0 1 -4.536 0.847 a 43.792 43.792 0 0 1 -4.606 0.307 l 4.71 25.772 c -7.1 -0.774 -14.574 -2.698 -22.267 -5.651 l -14.725 -28.402 a 129.325 129.325 0 0 1 -11.876 -6.559 l -7.122 16.452 c -8.279 -5.818 -16.574 -12.562 -24.723 -20.085 l -4.018 -25.694 a 251.307 251.307 0 0 1 -11.146 -12.167 l -17.268 2.639 a 331.565 331.565 0 0 1 -20.522 -29.12 l 8.031 -16.047 a 270.342 270.342 0 0 1 -3.301 -6.035 a 252.246 252.246 0 0 1 -4.074 -8.063 l -22.992 -12.213 c -4.495 -10.459 -8.106 -20.636 -10.834 -30.378 l 18.209 -1.738 a 131.628 131.628 0 0 1 -1.975 -12.172 l -22.551 -24.069 c -0.302 -8.553 0.317 -16.441 1.858 -23.494 l 23.572 13.326 c 0.971 -2.637 2.134 -5.083 3.488 -7.322 l -15.966 -29.579 a 37.974 37.974 0 0 1 14.129 -10.218 l 22.546 24.889 a 40.866 40.866 0 0 1 3.712 -0.639 a 43.742 43.742 0 0 1 4.104 -0.302 l -4.938 -27.017 c 7.216 0.791 14.812 2.772 22.642 5.823 l 15.338 29.593 a 130.412 130.412 0 0 1 10.2 5.568 l 7.389 -17.065 c 8.414 5.891 16.851 12.738 25.135 20.393 l 4.094 26.188 a 246.453 246.453 0 0 1 10.111 10.884 l 17.54 -2.686 a 330.493 330.493 0 0 1 20.85 29.449 l -7.963 15.92 a 269.358 269.358 0 0 1 4.328 7.835 z m -27.913 85.25 c 25.596 -3.652 28.204 -40.728 5.732 -83.205 c -22.627 -42.768 -62.106 -74.813 -88.177 -71.585 a 27.81 27.81 0 0 0 -0.515 0.067 c -25.59 3.655 -28.199 40.728 -5.724 83.211 c 22.622 42.761 62.102 74.814 88.169 71.58 c 0.174 -0.021 0.343 -0.043 0.515 -0.068" style="stroke: none; stroke-width: 1; stroke-dasharray: none; stroke-linecap: butt; stroke-linejoin: miter; stroke-miterlimit: 10; fill: #c69c6d; fill-rule: nonzero; opacity: 1;" transform="" stroke-linecap="round" />
  <path d="M 620.872 270.035 l -35.876 25.061 l -22.209 2.125 l 35.877 -25.061 z M 471.635 94.076 l -35.876 25.061 l 9.32 -21.527 l 35.876 -25.06 z" style="stroke: none; stroke-width: 1; stroke-dasharray: none; stroke-linecap: butt; stroke-linejoin: miter; stroke-miterlimit: 10; fill: #313f76; fill-rule: nonzero; opacity: 1;" transform="" stroke-linecap="round" />
  <path d="M 626.99 347.701 l -35.876 25.061 l -28.298 -16 l 35.876 -25.061 z M 417.093 76.459 l -35.877 25.061 l -6.227 -34.075 l 35.876 -25.061 z" style="stroke: none; stroke-width: 1; stroke-dasharray: none; stroke-linecap: butt; stroke-linejoin: miter; stroke-miterlimit: 10; fill: #94a3bb; fill-rule: nonzero; opacity: 1;" transform="" stroke-linecap="round" />
  <path d="M 563.439 294.224 c 0.191 -0.64 0.365 -1.297 0.533 -1.959 c 0.073 -0.29 0.155 -0.57 0.225 -0.864 c 0.225 -0.96 0.427 -1.94 0.603 -2.945 c 0.032 -0.187 0.054 -0.382 0.085 -0.57 c 0.137 -0.831 0.261 -1.673 0.363 -2.533 c 0.011 -0.088 0.027 -0.17 0.037 -0.258 c 0.045 -0.389 0.07 -0.794 0.108 -1.189 c 0.048 -0.495 0.1 -0.986 0.137 -1.49 c 0.037 -0.514 0.06 -1.04 0.086 -1.563 c 0.025 -0.501 0.055 -0.999 0.07 -1.508 c 0.016 -0.536 0.016 -1.083 0.021 -1.628 c 0.004 -0.514 0.012 -1.024 0.006 -1.546 c -0.007 -0.555 -0.027 -1.121 -0.046 -1.684 c -0.017 -0.528 -0.029 -1.052 -0.057 -1.587 c -0.007 -0.128 -0.007 -0.252 -0.014 -0.38 c -0.025 -0.467 -0.07 -0.948 -0.104 -1.421 c -0.036 -0.506 -0.067 -1.009 -0.111 -1.521 c -0.053 -0.603 -0.12 -1.215 -0.185 -1.826 c -0.056 -0.527 -0.106 -1.051 -0.171 -1.584 c -0.075 -0.618 -0.167 -1.247 -0.255 -1.873 c -0.074 -0.538 -0.144 -1.071 -0.228 -1.615 c -0.099 -0.633 -0.214 -1.277 -0.324 -1.917 c -0.095 -0.551 -0.183 -1.098 -0.287 -1.654 c -0.016 -0.083 -0.027 -0.165 -0.043 -0.248 c -0.083 -0.438 -0.186 -0.888 -0.273 -1.33 c -0.147 -0.734 -0.292 -1.467 -0.455 -2.21 c -0.123 -0.561 -0.261 -1.129 -0.393 -1.694 c -0.169 -0.722 -0.335 -1.441 -0.518 -2.17 c -0.146 -0.578 -0.304 -1.163 -0.457 -1.745 c -0.193 -0.73 -0.387 -1.459 -0.594 -2.197 c -0.166 -0.589 -0.343 -1.183 -0.518 -1.776 c -0.219 -0.743 -0.439 -1.487 -0.673 -2.237 c -0.067 -0.216 -0.126 -0.428 -0.194 -0.645 c -0.224 -0.709 -0.461 -1.424 -0.698 -2.139 c -0.059 -0.178 -0.113 -0.354 -0.173 -0.532 a 177.172 177.172 0 0 0 -1.237 -3.547 c -0.111 -0.31 -0.228 -0.621 -0.342 -0.931 c -0.349 -0.952 -0.709 -1.908 -1.081 -2.869 c -0.116 -0.303 -0.231 -0.604 -0.351 -0.908 c -0.476 -1.21 -0.966 -2.426 -1.477 -3.648 c -0.084 -0.201 -0.173 -0.403 -0.258 -0.604 a 187.486 187.486 0 0 0 -1.826 -4.19 a 191.599 191.599 0 0 0 -1.52 -3.303 c -0.072 -0.154 -0.142 -0.308 -0.215 -0.462 l -0.055 -0.118 c -0.416 -0.875 -0.854 -1.756 -1.287 -2.635 c -0.235 -0.478 -0.46 -0.953 -0.7 -1.432 a 215.88 215.88 0 0 0 -4.83 -9.089 l -0.049 -0.088 a 228.658 228.658 0 0 0 -2.728 -4.719 c -0.034 -0.058 -0.067 -0.116 -0.103 -0.174 a 234.068 234.068 0 0 0 -2.782 -4.552 c -0.053 -0.084 -0.104 -0.169 -0.157 -0.252 a 228.068 228.068 0 0 0 -2.839 -4.401 l -0.198 -0.303 a 230.088 230.088 0 0 0 -2.893 -4.256 l -0.241 -0.35 a 235.82 235.82 0 0 0 -2.942 -4.114 l -0.279 -0.384 a 225.433 225.433 0 0 0 -2.997 -3.989 c -0.1 -0.13 -0.198 -0.261 -0.299 -0.39 a 228.058 228.058 0 0 0 -3.054 -3.87 c -0.068 -0.084 -0.135 -0.173 -0.203 -0.257 l -0.16 -0.195 a 223.91 223.91 0 0 0 -1.966 -2.395 c -0.082 -0.099 -0.166 -0.195 -0.248 -0.293 c -0.579 -0.692 -1.16 -1.379 -1.745 -2.061 c -0.229 -0.268 -0.459 -0.532 -0.688 -0.797 a 255.781 255.781 0 0 0 -2.102 -2.395 c -0.457 -0.513 -0.915 -1.021 -1.375 -1.527 c -0.227 -0.25 -0.452 -0.501 -0.68 -0.749 a 236.79 236.79 0 0 0 -2.024 -2.18 l -0.264 -0.276 a 204.178 204.178 0 0 0 -1.812 -1.89 c -0.237 -0.245 -0.477 -0.487 -0.715 -0.731 c -0.465 -0.474 -0.931 -0.945 -1.396 -1.412 l -0.774 -0.771 c -0.475 -0.47 -0.95 -0.935 -1.426 -1.397 c -0.164 -0.159 -0.326 -0.322 -0.49 -0.48 c -0.052 -0.049 -0.104 -0.096 -0.154 -0.146 a 195.715 195.715 0 0 0 -6.92 -6.336 a 174.585 174.585 0 0 0 -3.011 -2.566 l -0.409 -0.337 a 168.082 168.082 0 0 0 -3.134 -2.534 l -0.041 -0.033 c -0.049 -0.039 -0.098 -0.074 -0.146 -0.112 a 154.735 154.735 0 0 0 -2.661 -2.041 c -0.18 -0.135 -0.359 -0.272 -0.539 -0.406 a 147.96 147.96 0 0 0 -2.698 -1.962 c -0.195 -0.139 -0.391 -0.276 -0.586 -0.413 c -0.924 -0.65 -1.848 -1.289 -2.771 -1.906 l -0.183 -0.12 a 130.692 130.692 0 0 0 -2.668 -1.728 c -0.11 -0.07 -0.222 -0.146 -0.332 -0.215 l -0.004 0.002 l 0.004 -0.003 c -0.065 -0.041 -0.131 -0.078 -0.196 -0.119 a 120.74 120.74 0 0 0 -3.269 -1.972 a 115.25 115.25 0 0 0 -2.791 -1.579 l -0.182 -0.097 c -0.897 -0.488 -1.792 -0.955 -2.685 -1.407 c -0.155 -0.079 -0.312 -0.16 -0.467 -0.237 c -0.9 -0.451 -1.797 -0.881 -2.691 -1.294 c -0.081 -0.038 -0.164 -0.081 -0.245 -0.118 c -0.086 -0.04 -0.171 -0.072 -0.257 -0.112 a 89.058 89.058 0 0 0 -3.05 -1.323 c -0.146 -0.061 -0.292 -0.118 -0.438 -0.177 a 78.43 78.43 0 0 0 -3.059 -1.169 c -0.12 -0.043 -0.239 -0.083 -0.359 -0.125 a 73.452 73.452 0 0 0 -3.096 -1.017 l -0.239 -0.069 a 65.707 65.707 0 0 0 -3.167 -0.862 l -0.015 -0.004 l -0.134 -0.03 a 58.136 58.136 0 0 0 -1.83 -0.409 c -0.208 -0.043 -0.414 -0.081 -0.621 -0.122 a 57.764 57.764 0 0 0 -2.039 -0.36 a 51.67 51.67 0 0 0 -1.368 -0.193 c -0.193 -0.025 -0.387 -0.053 -0.58 -0.075 c -0.64 -0.075 -1.276 -0.14 -1.907 -0.188 l -0.072 -0.004 a 44.225 44.225 0 0 0 -1.8 -0.095 c -0.196 -0.007 -0.39 -0.008 -0.584 -0.012 a 42.432 42.432 0 0 0 -1.926 0.005 c -0.423 0.011 -0.844 0.031 -1.262 0.056 c -0.189 0.011 -0.379 0.02 -0.567 0.034 c -0.597 0.044 -1.189 0.099 -1.776 0.171 c -0.217 0.026 -0.43 0.056 -0.644 0.086 c -4.835 0.69 -9.021 2.326 -12.546 4.789 l -35.876 25.061 c 3.525 -2.463 7.71 -4.099 12.546 -4.789 c 0.214 -0.03 0.427 -0.06 0.644 -0.086 c 0.586 -0.072 1.18 -0.127 1.776 -0.171 c 0.188 -0.014 0.377 -0.022 0.566 -0.034 a 40.208 40.208 0 0 1 1.907 -0.068 c 0.423 -0.004 0.85 -0.001 1.277 0.007 c 0.197 0.004 0.393 0.005 0.59 0.012 c 0.587 0.02 1.179 0.05 1.774 0.094 l 0.099 0.006 c 0.627 0.048 1.259 0.112 1.895 0.186 c 0.203 0.024 0.408 0.053 0.612 0.08 a 53.272 53.272 0 0 1 2.034 0.303 c 0.441 0.075 0.884 0.157 1.329 0.244 c 0.218 0.042 0.435 0.083 0.654 0.128 c 0.578 0.12 1.159 0.25 1.742 0.39 c 0.078 0.019 0.155 0.034 0.233 0.053 c 1.04 0.253 2.089 0.542 3.145 0.856 c 0.086 0.026 0.173 0.049 0.26 0.075 c 1.022 0.309 2.052 0.649 3.087 1.014 l 0.362 0.126 c 1.015 0.363 2.038 0.756 3.064 1.171 c 0.142 0.058 0.284 0.113 0.426 0.172 c 1.016 0.417 2.038 0.862 3.064 1.33 c 0.162 0.074 0.323 0.146 0.485 0.222 c 0.897 0.415 1.798 0.847 2.702 1.299 l 0.459 0.233 c 0.896 0.454 1.795 0.923 2.696 1.413 l 0.173 0.092 c 0.929 0.506 1.86 1.037 2.792 1.58 c 0.181 0.105 0.363 0.21 0.544 0.317 c 0.911 0.538 1.824 1.091 2.738 1.663 l 0.492 0.311 a 131.99 131.99 0 0 1 2.724 1.765 l 0.14 0.092 a 149.6 149.6 0 0 1 2.804 1.928 c 0.182 0.128 0.364 0.255 0.546 0.385 c 0.908 0.646 1.817 1.306 2.726 1.982 c 0.172 0.128 0.344 0.259 0.516 0.388 c 0.882 0.663 1.764 1.337 2.645 2.028 l 0.227 0.176 c 1.043 0.821 2.084 1.666 3.124 2.526 l 0.41 0.338 c 1.007 0.838 2.012 1.697 3.016 2.57 l 0.488 0.426 a 189.703 189.703 0 0 1 6.431 5.909 c 0.209 0.201 0.418 0.406 0.627 0.608 a 213.61 213.61 0 0 1 2.206 2.173 c 0.473 0.474 0.945 0.952 1.416 1.433 c 0.232 0.237 0.466 0.473 0.698 0.712 c 0.618 0.637 1.234 1.281 1.849 1.93 c 0.075 0.08 0.151 0.157 0.227 0.237 c 0.681 0.721 1.357 1.452 2.032 2.188 c 0.225 0.245 0.448 0.494 0.672 0.74 a 227.127 227.127 0 0 1 3.471 3.913 c 0.235 0.272 0.472 0.544 0.707 0.818 c 0.564 0.658 1.126 1.322 1.686 1.99 l 0.308 0.364 c 0.651 0.783 1.3 1.573 1.945 2.369 l 0.393 0.489 a 232.032 232.032 0 0 1 3.039 3.851 l 0.292 0.382 a 222.858 222.858 0 0 1 3.012 4.009 l 0.25 0.343 a 237.057 237.057 0 0 1 2.973 4.158 l 0.207 0.3 c 0.987 1.42 1.964 2.854 2.925 4.303 l 0.169 0.258 c 0.97 1.468 1.927 2.949 2.868 4.445 l 0.129 0.209 a 228.218 228.218 0 0 1 2.805 4.588 l 0.092 0.155 a 222.87 222.87 0 0 1 2.735 4.732 l 0.049 0.088 a 216.693 216.693 0 0 1 4.834 9.097 c 0.202 0.403 0.391 0.803 0.589 1.205 c 0.492 0.996 0.984 1.992 1.454 2.982 l 0.192 0.414 a 196.552 196.552 0 0 1 2.008 4.399 c 0.46 1.038 0.907 2.073 1.342 3.103 c 0.091 0.215 0.186 0.431 0.275 0.645 c 0.506 1.213 0.992 2.418 1.465 3.619 c 0.126 0.322 0.248 0.641 0.371 0.962 c 0.362 0.936 0.714 1.868 1.054 2.796 c 0.121 0.329 0.244 0.659 0.362 0.987 a 168.45 168.45 0 0 1 1.228 3.519 c 0.063 0.188 0.12 0.373 0.183 0.56 c 0.308 0.929 0.602 1.852 0.888 2.771 c 0.232 0.747 0.452 1.488 0.67 2.229 c 0.175 0.592 0.353 1.187 0.518 1.775 c 0.21 0.746 0.405 1.484 0.601 2.223 c 0.15 0.571 0.306 1.144 0.447 1.71 c 0.188 0.749 0.359 1.49 0.532 2.23 c 0.127 0.545 0.26 1.093 0.379 1.633 c 0.166 0.755 0.313 1.5 0.463 2.247 c 0.104 0.518 0.216 1.041 0.312 1.554 c 0.104 0.556 0.192 1.103 0.287 1.653 c 0.11 0.642 0.226 1.286 0.324 1.919 c 0.084 0.542 0.152 1.075 0.228 1.611 c 0.088 0.627 0.18 1.257 0.255 1.876 c 0.064 0.532 0.115 1.054 0.17 1.58 c 0.065 0.612 0.133 1.226 0.186 1.829 c 0.045 0.512 0.075 1.014 0.111 1.52 c 0.042 0.603 0.087 1.208 0.117 1.802 c 0.027 0.54 0.04 1.069 0.057 1.601 c 0.019 0.557 0.039 1.116 0.046 1.664 c 0.006 0.535 -0.002 1.06 -0.007 1.586 c -0.004 0.529 -0.005 1.062 -0.02 1.583 c -0.016 0.528 -0.046 1.045 -0.072 1.564 c -0.026 0.504 -0.048 1.011 -0.084 1.507 c -0.037 0.514 -0.09 1.015 -0.139 1.519 c -0.046 0.478 -0.088 0.96 -0.144 1.43 a 61.28 61.28 0 0 1 -0.363 2.534 c -0.03 0.188 -0.053 0.383 -0.085 0.569 a 52.824 52.824 0 0 1 -0.603 2.945 c -0.069 0.294 -0.151 0.575 -0.225 0.864 c -0.168 0.662 -0.342 1.32 -0.534 1.959 c -0.104 0.349 -0.221 0.688 -0.333 1.03 a 44.354 44.354 0 0 1 -0.577 1.661 c -0.15 0.4 -0.307 0.793 -0.467 1.183 c -0.142 0.343 -0.284 0.686 -0.435 1.021 a 36.7 36.7 0 0 1 -0.567 1.199 c -0.16 0.326 -0.319 0.651 -0.487 0.968 c -0.205 0.386 -0.421 0.76 -0.638 1.133 c -0.178 0.304 -0.352 0.611 -0.537 0.907 c -0.229 0.366 -0.471 0.718 -0.712 1.07 c -0.192 0.281 -0.381 0.566 -0.581 0.838 c -0.257 0.349 -0.527 0.681 -0.797 1.015 c -0.205 0.254 -0.403 0.515 -0.615 0.76 c -0.292 0.337 -0.6 0.655 -0.905 0.977 c -0.208 0.219 -0.409 0.448 -0.625 0.66 c -0.349 0.343 -0.716 0.664 -1.081 0.986 c -0.19 0.168 -0.372 0.348 -0.567 0.51 c -0.569 0.474 -1.157 0.926 -1.766 1.351 l 35.876 -25.061 a 26.365 26.365 0 0 0 1.767 -1.352 c 0.19 -0.158 0.366 -0.333 0.552 -0.496 c 0.371 -0.327 0.743 -0.652 1.097 -1 c 0.213 -0.209 0.411 -0.434 0.616 -0.65 c 0.309 -0.324 0.62 -0.646 0.914 -0.986 c 0.21 -0.243 0.407 -0.501 0.609 -0.752 c 0.271 -0.336 0.544 -0.671 0.803 -1.022 c 0.199 -0.271 0.386 -0.554 0.577 -0.833 c 0.242 -0.354 0.485 -0.708 0.716 -1.075 c 0.185 -0.295 0.358 -0.601 0.535 -0.904 c 0.217 -0.374 0.434 -0.749 0.639 -1.136 c 0.168 -0.316 0.327 -0.642 0.487 -0.967 c 0.194 -0.395 0.386 -0.792 0.567 -1.2 c 0.15 -0.335 0.293 -0.678 0.435 -1.021 c 0.099 -0.24 0.208 -0.469 0.303 -0.712 c 0.06 -0.152 0.105 -0.316 0.163 -0.47 c 0.204 -0.543 0.394 -1.099 0.578 -1.661 c 0.113 -0.34 0.229 -0.679 0.334 -1.028 z M 477.885 133.943 v 0.001 z" style="stroke: none; stroke-width: 1; stroke-dasharray: none; stroke-linecap: butt; stroke-linejoin: miter; stroke-miterlimit: 10; fill: #313f76; fill-rule: nonzero; opacity: 1;" transform="" stroke-linecap="round" />
  <path d="M 604.024 386.274 l -35.876 25.061 a 48.395 48.395 0 0 1 -8.4 4.691 l 35.876 -25.061 a 48.292 48.292 0 0 0 8.4 -4.691 z" style="stroke: none; stroke-width: 1; stroke-dasharray: none; stroke-linecap: butt; stroke-linejoin: miter; stroke-miterlimit: 10; fill: #313f76; fill-rule: nonzero; opacity: 1;" transform=" matrix(1 0 0 1 0 0) " stroke-linecap="round" />
  <path d="M 604.024 386.274 l -35.876 25.061 a 48.395 48.395 0 0 1 -8.4 4.691 l 35.876 -25.061 a 48.292 48.292 0 0 0 8.4 -4.691" style="stroke: none; stroke-width: 1; stroke-dasharray: none; stroke-linecap: butt; stroke-linejoin: miter; stroke-miterlimit: 10; fill: #313f76; fill-rule: nonzero; opacity: 1;" transform="" stroke-linecap="round" />
  <path d="M 333.899 76.268 l 35.876 -25.061 a 48.507 48.507 0 0 0 -8.802 7.927 l -35.876 25.061 a 48.54 48.54 0 0 1 8.802 -7.927 z" style="stroke: none; stroke-width: 1; stroke-dasharray: none; stroke-linecap: butt; stroke-linejoin: miter; stroke-miterlimit: 10; fill: #313f76; fill-rule: nonzero; opacity: 1;" transform=" matrix(1 0 0 1 0 0) " stroke-linecap="round" />
  <path d="M 360.974 59.134 l -35.876 25.061 a 48.614 48.614 0 0 1 8.802 -7.927 l 35.876 -25.061 a 48.473 48.473 0 0 0 -8.802 7.927" style="stroke: none; stroke-width: 1; stroke-dasharray: none; stroke-linecap: butt; stroke-linejoin: miter; stroke-miterlimit: 10; fill: #313f76; fill-rule: nonzero; opacity: 1;" transform="" stroke-linecap="round" />
  <path d="M 595.624 390.966 l -35.876 25.06 l -27.001 -29.807 l 35.876 -25.062 z M 381.117 96.451 l -35.876 25.061 l -20.144 -37.318 l 35.877 -25.06 z" style="stroke: none; stroke-width: 1; stroke-dasharray: none; stroke-linecap: butt; stroke-linejoin: miter; stroke-miterlimit: 10; fill: #94a3bb; fill-rule: nonzero; opacity: 1;" transform="" stroke-linecap="round" />
  <path d="M 568.623 361.157 l -35.876 25.062 a 49.734 49.734 0 0 1 -5.72 1.066 a 56.092 56.092 0 0 1 -5.811 0.387 l 35.876 -25.061 a 55.872 55.872 0 0 0 5.812 -0.387 a 49.39 49.39 0 0 0 5.719 -1.067 z" style="stroke: none; stroke-width: 1; stroke-dasharray: none; stroke-linecap: butt; stroke-linejoin: miter; stroke-miterlimit: 10; fill: #313f76; fill-rule: nonzero; opacity: 1;" transform=" matrix(1 0 0 1 0 0) " stroke-linecap="round" />
  <path d="M 568.623 361.157 l -35.876 25.062 a 49.734 49.734 0 0 1 -5.72 1.066 a 56.092 56.092 0 0 1 -5.811 0.387 l 35.876 -25.061 a 55.872 55.872 0 0 0 5.812 -0.387 a 49.39 49.39 0 0 0 5.719 -1.067" style="stroke: none; stroke-width: 1; stroke-dasharray: none; stroke-linecap: butt; stroke-linejoin: miter; stroke-miterlimit: 10; fill: #313f76; fill-rule: nonzero; opacity: 1;" transform="" stroke-linecap="round" />
  <path d="M 376.719 105.691 l -35.876 25.061 c 1.218 -3.332 2.688 -6.422 4.398 -9.24 l 35.876 -25.061 c -1.711 2.818 -3.179 5.908 -4.398 9.24 z" style="stroke: none; stroke-width: 1; stroke-dasharray: none; stroke-linecap: butt; stroke-linejoin: miter; stroke-miterlimit: 10; fill: #313f76; fill-rule: nonzero; opacity: 1;" transform=" matrix(1 0 0 1 0 0) " stroke-linecap="round" />
  <path d="M 376.719 105.691 l -35.876 25.061 c 0.137 -0.375 0.277 -0.747 0.421 -1.115 l 35.876 -25.061 c -0.144 0.368 -0.285 0.74 -0.421 1.115 M 377.14 104.575 l -35.876 25.061 c 1.131 -2.908 2.459 -5.624 3.978 -8.125 l 35.876 -25.061 c -1.519 2.501 -2.847 5.217 -3.978 8.125" style="stroke: none; stroke-width: 1; stroke-dasharray: none; stroke-linecap: butt; stroke-linejoin: miter; stroke-miterlimit: 10; fill: #313f76; fill-rule: nonzero; opacity: 1;" transform="" stroke-linecap="round" />
  <path d="M 534.951 387.987 l -35.876 25.062 l -18.57 -35.822 l 35.876 -25.061 z" style="stroke: none; stroke-width: 1; stroke-dasharray: none; stroke-linecap: butt; stroke-linejoin: miter; stroke-miterlimit: 10; fill: #94a3bb; fill-rule: nonzero; opacity: 1;" transform="" stroke-linecap="round" />
  <path d="M 519.331 418.966 c 0.426 0.083 0.854 0.173 1.278 0.25 c 0.742 0.135 1.479 0.251 2.217 0.367 c 0.36 0.058 0.724 0.123 1.082 0.175 c 1.091 0.159 2.176 0.301 3.254 0.418 l 35.876 -25.061 a 89.414 89.414 0 0 1 -3.249 -0.417 c -0.382 -0.056 -0.767 -0.125 -1.149 -0.186 c -0.71 -0.112 -1.42 -0.225 -2.136 -0.354 c -0.461 -0.084 -0.927 -0.181 -1.391 -0.271 c -0.644 -0.126 -1.287 -0.252 -1.935 -0.392 c -0.492 -0.105 -0.987 -0.223 -1.48 -0.337 c -0.608 -0.141 -1.216 -0.281 -1.827 -0.434 c -0.713 -0.177 -1.43 -0.369 -2.146 -0.563 c -0.517 -0.14 -1.032 -0.273 -1.551 -0.421 c -0.73 -0.208 -1.465 -0.433 -2.199 -0.656 c -0.506 -0.154 -1.01 -0.301 -1.518 -0.462 c -0.803 -0.256 -1.609 -0.531 -2.416 -0.806 c -0.442 -0.15 -0.883 -0.291 -1.326 -0.447 c -1.25 -0.439 -2.504 -0.898 -3.764 -1.383 l -35.876 25.062 c 1.263 0.485 2.521 0.945 3.774 1.387 c 0.412 0.145 0.82 0.274 1.231 0.415 c 0.838 0.285 1.677 0.571 2.51 0.836 c 0.496 0.158 0.988 0.302 1.482 0.452 c 0.742 0.226 1.484 0.453 2.223 0.662 c 0.53 0.151 1.058 0.289 1.586 0.431 c 0.696 0.188 1.393 0.375 2.085 0.547 c 0.181 0.045 0.363 0.099 0.543 0.143 c 0.467 0.114 0.929 0.211 1.395 0.317 c 0.456 0.104 0.913 0.213 1.367 0.312 c 0.69 0.149 1.375 0.283 2.06 0.416 z M 344.563 112.47 a 136.621 136.621 0 0 1 0.105 -4.713 c 0.045 -1.119 0.106 -2.224 0.18 -3.32 c 0.025 -0.367 0.042 -0.74 0.07 -1.105 c 0.109 -1.44 0.241 -2.861 0.399 -4.26 c 0.027 -0.238 0.062 -0.47 0.09 -0.707 a 106.91 106.91 0 0 1 0.736 -5.12 c 0.25 -1.481 0.52 -2.947 0.83 -4.376 l -35.875 25.061 a 95.735 95.735 0 0 0 -1.025 5.583 c -0.2 1.274 -0.38 2.564 -0.537 3.875 c -0.023 0.191 -0.056 0.373 -0.078 0.565 c -0.007 0.063 -0.011 0.13 -0.018 0.194 a 115.282 115.282 0 0 0 -0.397 4.243 c -0.028 0.369 -0.046 0.747 -0.071 1.118 a 129.939 129.939 0 0 0 -0.18 3.308 a 141.716 141.716 0 0 0 -0.105 4.712 c -0.003 0.467 -0.009 0.931 -0.007 1.401 c 0.006 1.532 0.029 3.076 0.084 4.644 l 35.876 -25.061 a 148.829 148.829 0 0 1 -0.084 -4.645 c -0.002 -0.469 0.005 -0.931 0.007 -1.397 z" style="stroke: none; stroke-width: 1; stroke-dasharray: none; stroke-linecap: butt; stroke-linejoin: miter; stroke-miterlimit: 10; fill: #313f76; fill-rule: nonzero; opacity: 1;" transform="" stroke-linecap="round" />
  <path d="M 373.085 148.866 l -35.877 25.061 l -28.443 -30.355 l 35.876 -25.061 z" style="stroke: none; stroke-width: 1; stroke-dasharray: none; stroke-linecap: butt; stroke-linejoin: miter; stroke-miterlimit: 10; fill: #94a3bb; fill-rule: nonzero; opacity: 1;" transform="" stroke-linecap="round" />
  <path d="M 516.381 352.166 l -35.876 25.061 c -4.939 -2.386 -9.943 -5.146 -14.98 -8.27 l 35.876 -25.061 c 5.037 3.124 10.04 5.884 14.98 8.27 z" style="stroke: none; stroke-width: 1; stroke-dasharray: none; stroke-linecap: butt; stroke-linejoin: miter; stroke-miterlimit: 10; fill: #313f76; fill-rule: nonzero; opacity: 1;" transform=" matrix(1 0 0 1 0 0) " stroke-linecap="round" />
  <path d="M 516.381 352.166 l -35.876 25.061 c -4.939 -2.386 -9.943 -5.146 -14.98 -8.27 l 35.876 -25.061 c 5.037 3.124 10.04 5.884 14.98 8.27" style="stroke: none; stroke-width: 1; stroke-dasharray: none; stroke-linecap: butt; stroke-linejoin: miter; stroke-miterlimit: 10; fill: #313f76; fill-rule: nonzero; opacity: 1;" transform="" stroke-linecap="round" />
  <path d="M 375.574 164.221 l -35.876 25.061 c -1.103 -5.28 -1.933 -10.406 -2.49 -15.355 l 35.876 -25.061 c 0.558 4.948 1.388 10.075 2.49 15.355 z" style="stroke: none; stroke-width: 1; stroke-dasharray: none; stroke-linecap: butt; stroke-linejoin: miter; stroke-miterlimit: 10; fill: #313f76; fill-rule: nonzero; opacity: 1;" transform=" matrix(1 0 0 1 0 0) " stroke-linecap="round" />
  <path d="M 375.574 164.221 l -35.876 25.061 a 175.077 175.077 0 0 1 -0.672 -3.377 l 35.876 -25.061 c 0.211 1.118 0.436 2.244 0.672 3.377 M 374.902 160.843 l -35.876 25.061 a 162.473 162.473 0 0 1 -1.817 -11.978 l 35.876 -25.061 a 161.942 161.942 0 0 0 1.817 11.978" style="stroke: none; stroke-width: 1; stroke-dasharray: none; stroke-linecap: butt; stroke-linejoin: miter; stroke-miterlimit: 10; fill: #313f76; fill-rule: nonzero; opacity: 1;" transform="" stroke-linecap="round" />
  <path d="M 456.158 306.894 l -35.876 25.061 a 312.343 312.343 0 0 1 -14.051 -15.343 l 35.876 -25.061 a 313.803 313.803 0 0 0 14.051 15.343 z" style="stroke: none; stroke-width: 1; stroke-dasharray: none; stroke-linecap: butt; stroke-linejoin: miter; stroke-miterlimit: 10; fill: #94a3bb; fill-rule: nonzero; opacity: 1;" transform=" matrix(1 0 0 1 0 0) " stroke-linecap="round" />
  <path d="M 456.158 306.894 l -35.876 25.061 a 312.343 312.343 0 0 1 -14.051 -15.343 l 35.876 -25.061 a 313.803 313.803 0 0 0 14.051 15.343" style="stroke: none; stroke-width: 1; stroke-dasharray: none; stroke-linecap: butt; stroke-linejoin: miter; stroke-miterlimit: 10; fill: #94a3bb; fill-rule: nonzero; opacity: 1;" transform="" stroke-linecap="round" />
  <path d="M 448.271 383.646 a 274.73 274.73 0 0 0 3.689 2.757 c 0.344 0.254 0.688 0.509 1.033 0.76 c 1.183 0.861 2.365 1.713 3.548 2.545 l 35.876 -25.061 a 269.58 269.58 0 0 1 -3.53 -2.532 c -0.36 -0.263 -0.721 -0.529 -1.081 -0.794 a 319.17 319.17 0 0 1 -2.56 -1.905 l -1.109 -0.839 c -1.04 -0.791 -2.08 -1.593 -3.119 -2.406 l -0.413 -0.32 c -0.248 -0.194 -0.495 -0.397 -0.743 -0.594 a 302.034 302.034 0 0 1 -3.741 -3.006 c -0.48 -0.392 -0.96 -0.792 -1.44 -1.189 a 295.147 295.147 0 0 1 -4.586 -3.864 a 334.775 334.775 0 0 1 -3.129 -2.726 c -0.444 -0.392 -0.889 -0.779 -1.333 -1.174 a 335.451 335.451 0 0 1 -4.4 -3.985 l -35.876 25.061 a 327.915 327.915 0 0 0 4.401 3.985 c 0.444 0.396 0.889 0.783 1.333 1.175 c 1.042 0.918 2.084 1.828 3.129 2.726 c 0.507 0.436 1.015 0.868 1.522 1.3 c 1.021 0.865 2.042 1.719 3.064 2.564 c 0.48 0.397 0.96 0.797 1.44 1.189 a 293.047 293.047 0 0 0 3.741 3.006 c 0.206 0.163 0.411 0.333 0.616 0.495 l 0.127 0.099 c 0.136 0.107 0.271 0.21 0.407 0.316 c 1.044 0.817 2.089 1.623 3.134 2.417 z" style="stroke: none; stroke-width: 1; stroke-dasharray: none; stroke-linecap: butt; stroke-linejoin: miter; stroke-miterlimit: 10; fill: #313f76; fill-rule: nonzero; opacity: 1;" transform="" stroke-linecap="round" />
  <path d="M 461.23 339.313 l -35.876 25.06 l -5.072 -32.419 l 35.876 -25.06 z" style="stroke: none; stroke-width: 1; stroke-dasharray: none; stroke-linecap: butt; stroke-linejoin: miter; stroke-miterlimit: 10; fill: #94a3bb; fill-rule: nonzero; opacity: 1;" transform="" stroke-linecap="round" />
  <path d="M 400.413 230.304 a 315.362 315.362 0 0 1 -5.142 -10.167 L 366.27 204.73 a 337.244 337.244 0 0 1 -1.88 -4.47 c -0.182 -0.439 -0.358 -0.876 -0.537 -1.314 a 351.026 351.026 0 0 1 -1.843 -4.606 a 339.703 339.703 0 0 1 -1.438 -3.747 c -0.084 -0.223 -0.172 -0.447 -0.255 -0.67 a 321.553 321.553 0 0 1 -1.6 -4.378 c -0.133 -0.373 -0.262 -0.744 -0.393 -1.116 a 313.083 313.083 0 0 1 -1.592 -4.627 c -0.37 -1.106 -0.731 -2.208 -1.085 -3.308 c -0.11 -0.343 -0.224 -0.687 -0.332 -1.028 c -0.32 -1.008 -0.625 -2.009 -0.93 -3.01 c -0.161 -0.527 -0.33 -1.058 -0.486 -1.584 a 271.22 271.22 0 0 1 -1.294 -4.465 l -35.876 25.061 c 0.416 1.486 0.85 2.98 1.299 4.481 c 0.15 0.503 0.312 1.012 0.466 1.517 c 0.272 0.892 0.539 1.781 0.822 2.678 c 0.039 0.123 0.081 0.247 0.119 0.369 c 0.115 0.361 0.235 0.726 0.352 1.087 a 296.709 296.709 0 0 0 1.536 4.64 c 0.362 1.064 0.732 2.131 1.11 3.201 c 0.14 0.395 0.275 0.789 0.417 1.185 a 303.335 303.335 0 0 0 1.586 4.34 c 0.096 0.257 0.197 0.516 0.294 0.774 c 0.456 1.208 0.921 2.42 1.396 3.637 c 0.184 0.47 0.371 0.941 0.557 1.412 c 0.42 1.062 0.849 2.126 1.285 3.193 c 0.184 0.451 0.366 0.901 0.553 1.353 a 341.13 341.13 0 0 0 1.875 4.458 l 29.001 15.407 a 318.434 318.434 0 0 0 5.141 10.167 a 330.821 330.821 0 0 0 4.159 7.608 l 35.876 -25.061 a 327.553 327.553 0 0 1 -4.16 -7.61 z" style="stroke: none; stroke-width: 1; stroke-dasharray: none; stroke-linecap: butt; stroke-linejoin: miter; stroke-miterlimit: 10; fill: #94a3bb; fill-rule: nonzero; opacity: 1;" transform="" stroke-linecap="round" />
  <path d="M 420.333 294.892 l -35.876 25.06 l 21.774 -3.341 l 35.876 -25.06 z M 368.695 262.974 l -10.126 20.238 l 35.876 -25.061 l 10.126 -20.238 z" style="stroke: none; stroke-width: 1; stroke-dasharray: none; stroke-linecap: butt; stroke-linejoin: miter; stroke-miterlimit: 10; fill: #313f76; fill-rule: nonzero; opacity: 1;" transform="" stroke-linecap="round" />
  <path d="M 420.333 294.892 l -35.876 25.061 a 418.51 418.51 0 0 1 -25.888 -36.74 l 35.876 -25.061 a 418.81 418.81 0 0 0 25.888 36.74 z" style="stroke: none; stroke-width: 1; stroke-dasharray: none; stroke-linecap: butt; stroke-linejoin: miter; stroke-miterlimit: 10; fill: #94a3bb; fill-rule: nonzero; opacity: 1;" transform=" matrix(1 0 0 1 0 0) " stroke-linecap="round" />
  <path d="M 420.333 294.892 l -35.876 25.061 a 418.51 418.51 0 0 1 -25.888 -36.74 l 35.876 -25.061 a 418.81 418.81 0 0 0 25.888 36.74" style="stroke: none; stroke-width: 1; stroke-dasharray: none; stroke-linecap: butt; stroke-linejoin: miter; stroke-miterlimit: 10; fill: #94a3bb; fill-rule: nonzero; opacity: 1;" transform="" stroke-linecap="round" />
  <path d="M 574.405 208.75 a 324.438 324.438 0 0 1 3.804 7.417 l 28.723 15.255 c 5.779 13.299 10.422 26.227 13.94 38.613 l -22.208 2.125 c 1.262 5.633 2.218 11.101 2.871 16.371 l 27.568 29.417 c 0.457 10.827 -0.257 20.8 -2.113 29.753 l -28.298 -16 c -1.29 3.868 -2.904 7.422 -4.828 10.645 l 19.25 35.658 c -4.777 5.593 -10.617 9.969 -17.49 12.962 l -27.001 -29.809 a 49.39 49.39 0 0 1 -5.719 1.067 a 56.13 56.13 0 0 1 -5.812 0.387 l 5.945 32.504 c -8.961 -0.978 -18.384 -3.4 -28.087 -7.128 l -18.57 -35.821 c -4.939 -2.386 -9.943 -5.146 -14.98 -8.27 l -8.983 20.752 c -10.44 -7.348 -20.903 -15.844 -31.187 -25.336 l -5.072 -32.419 a 312.842 312.842 0 0 1 -14.051 -15.343 l -21.774 3.341 a 418.51 418.51 0 0 1 -25.888 -36.74 l 10.126 -20.238 a 315.362 315.362 0 0 1 -9.3 -17.776 L 366.27 204.73 c -5.671 -13.198 -10.221 -26.029 -13.666 -38.325 l 22.97 -2.184 c -1.103 -5.28 -1.933 -10.407 -2.489 -15.355 l -28.444 -30.354 c -0.379 -10.787 0.401 -20.738 2.334 -29.642 l 29.744 16.822 c 1.219 -3.332 2.688 -6.422 4.398 -9.24 l -20.144 -37.317 c 4.875 -5.591 10.82 -9.947 17.825 -12.885 l 28.438 31.399 a 47.344 47.344 0 0 1 4.682 -0.81 a 55.201 55.201 0 0 1 5.175 -0.379 l -6.228 -34.075 c 9.103 0.998 18.684 3.498 28.557 7.335 l 19.353 37.339 a 162.686 162.686 0 0 1 12.86 7.019 l 9.32 -21.526 c 10.617 7.439 21.252 16.07 31.697 25.722 l 5.168 33.032 a 311.14 311.14 0 0 1 12.749 13.725 l 22.126 -3.391 A 417.809 417.809 0 0 1 579 178.797 l -10.047 20.077 a 325.32 325.32 0 0 1 5.452 9.876 z m -35.204 107.533 c 32.283 -4.606 35.579 -51.372 7.23 -104.952 c -28.537 -53.937 -78.328 -94.357 -111.216 -90.292 c -0.217 0.026 -0.43 0.056 -0.644 0.086 c -32.282 4.607 -35.575 51.37 -7.23 104.951 c 28.537 53.937 78.332 94.365 111.215 90.291 c 0.217 -0.026 0.431 -0.054 0.645 -0.084" style="stroke: none; stroke-width: 1; stroke-dasharray: none; stroke-linecap: butt; stroke-linejoin: miter; stroke-miterlimit: 10; fill: #607da0; fill-rule: nonzero; opacity: 1;" transform="" stroke-linecap="round" />
  <path d="M 569.832 523.688 l -35.877 25.061 l -25.444 2.429 l 35.876 -25.062 z" style="stroke: none; stroke-width: 1; stroke-dasharray: none; stroke-linecap: butt; stroke-linejoin: miter; stroke-miterlimit: 10; fill: #49331e; fill-rule: nonzero; opacity: 1;" transform="" stroke-linecap="round" />
  <path d="M 398.884 322.137 l -35.876 25.061 l 10.679 -24.653 l 35.876 -25.061 z" style="stroke: none; stroke-width: 1; stroke-dasharray: none; stroke-linecap: butt; stroke-linejoin: miter; stroke-miterlimit: 10; fill: #49331e; fill-rule: nonzero; opacity: 1;" transform="" stroke-linecap="round" />
  <path d="M 576.837 612.646 l -35.876 25.06 l -32.414 -18.327 l 35.875 -25.062 z" style="stroke: none; stroke-width: 1; stroke-dasharray: none; stroke-linecap: butt; stroke-linejoin: miter; stroke-miterlimit: 10; fill: #724c28; fill-rule: nonzero; opacity: 1;" transform="" stroke-linecap="round" />
  <path d="M 336.41 301.951 l -35.876 25.061 l -7.133 -39.025 l 35.876 -25.06 z" style="stroke: none; stroke-width: 1; stroke-dasharray: none; stroke-linecap: butt; stroke-linejoin: miter; stroke-miterlimit: 10; fill: #49331e; fill-rule: nonzero; opacity: 1;" transform="" stroke-linecap="round" />
  <path d="M 504.038 551.401 c 0.227 -0.754 0.431 -1.528 0.628 -2.31 c 0.079 -0.311 0.168 -0.612 0.241 -0.927 a 59.36 59.36 0 0 0 0.693 -3.39 c 0.035 -0.197 0.058 -0.403 0.091 -0.602 c 0.158 -0.965 0.303 -1.942 0.422 -2.941 c 0.012 -0.102 0.031 -0.197 0.043 -0.3 c 0.052 -0.448 0.081 -0.914 0.125 -1.368 c 0.055 -0.568 0.113 -1.133 0.156 -1.711 c 0.041 -0.566 0.065 -1.145 0.095 -1.721 c 0.03 -0.602 0.065 -1.199 0.083 -1.812 c 0.017 -0.573 0.017 -1.158 0.022 -1.739 c 0.006 -0.632 0.015 -1.262 0.008 -1.903 c -0.008 -0.588 -0.031 -1.187 -0.049 -1.783 c -0.021 -0.652 -0.037 -1.302 -0.07 -1.964 c -0.007 -0.136 -0.007 -0.266 -0.015 -0.401 c -0.028 -0.511 -0.077 -1.036 -0.113 -1.553 c -0.042 -0.608 -0.08 -1.213 -0.133 -1.829 c -0.06 -0.683 -0.137 -1.376 -0.21 -2.066 c -0.063 -0.609 -0.122 -1.214 -0.197 -1.829 c -0.086 -0.708 -0.19 -1.427 -0.291 -2.144 c -0.086 -0.617 -0.165 -1.229 -0.262 -1.853 c -0.111 -0.718 -0.242 -1.447 -0.367 -2.174 c -0.11 -0.64 -0.213 -1.274 -0.333 -1.921 c -0.018 -0.092 -0.03 -0.182 -0.048 -0.273 c -0.093 -0.488 -0.206 -0.988 -0.305 -1.479 c -0.173 -0.86 -0.342 -1.72 -0.533 -2.591 c -0.138 -0.626 -0.292 -1.262 -0.439 -1.895 c -0.195 -0.839 -0.39 -1.678 -0.603 -2.526 c -0.164 -0.657 -0.345 -1.322 -0.52 -1.985 c -0.223 -0.839 -0.443 -1.677 -0.682 -2.523 c -0.19 -0.676 -0.394 -1.356 -0.594 -2.037 c -0.25 -0.85 -0.503 -1.699 -0.77 -2.557 c -0.077 -0.247 -0.144 -0.489 -0.222 -0.737 a 184.33 184.33 0 0 0 -0.802 -2.458 c -0.068 -0.205 -0.131 -0.407 -0.2 -0.612 a 187.489 187.489 0 0 0 -1.824 -5.172 a 213.966 213.966 0 0 0 -1.198 -3.181 c -0.146 -0.378 -0.289 -0.754 -0.438 -1.134 a 220.608 220.608 0 0 0 -1.66 -4.103 c -0.122 -0.291 -0.25 -0.584 -0.374 -0.876 a 219.332 219.332 0 0 0 -2.053 -4.708 a 249.13 249.13 0 0 0 -1.663 -3.615 c -0.106 -0.226 -0.207 -0.449 -0.314 -0.675 l -0.046 -0.099 c -0.374 -0.787 -0.772 -1.58 -1.158 -2.37 c -0.377 -0.772 -0.743 -1.542 -1.132 -2.317 a 250.39 250.39 0 0 0 -5.532 -10.406 c -0.015 -0.027 -0.029 -0.056 -0.045 -0.083 a 262.854 262.854 0 0 0 -3.147 -5.444 l -0.089 -0.151 a 263.118 263.118 0 0 0 -3.237 -5.294 c -0.04 -0.065 -0.08 -0.131 -0.121 -0.195 a 256.977 256.977 0 0 0 -3.311 -5.132 c -0.057 -0.086 -0.112 -0.173 -0.169 -0.258 a 265.494 265.494 0 0 0 -3.376 -4.969 l -0.21 -0.304 a 265.055 265.055 0 0 0 -3.429 -4.796 l -0.264 -0.363 a 268.826 268.826 0 0 0 -7.29 -9.471 c -0.079 -0.098 -0.156 -0.2 -0.235 -0.298 c -0.061 -0.075 -0.123 -0.148 -0.184 -0.224 a 259.547 259.547 0 0 0 -2.264 -2.756 l -0.185 -0.22 a 261.13 261.13 0 0 0 -2.112 -2.493 l -0.701 -0.811 a 279.796 279.796 0 0 0 -2.422 -2.762 a 224.594 224.594 0 0 0 -1.708 -1.896 c -0.22 -0.242 -0.439 -0.486 -0.659 -0.727 a 245.055 245.055 0 0 0 -2.381 -2.563 l -0.059 -0.062 c -0.77 -0.815 -1.542 -1.62 -2.316 -2.418 c -0.244 -0.252 -0.489 -0.5 -0.734 -0.75 a 227.743 227.743 0 0 0 -4.229 -4.21 c -0.17 -0.165 -0.339 -0.336 -0.51 -0.5 c -0.053 -0.052 -0.107 -0.101 -0.161 -0.151 a 220.655 220.655 0 0 0 -7.375 -6.777 l -0.562 -0.49 a 200.178 200.178 0 0 0 -3.462 -2.95 c -0.146 -0.122 -0.293 -0.241 -0.439 -0.362 a 200.082 200.082 0 0 0 -3.627 -2.933 l -0.029 -0.023 l -0.105 -0.08 a 179.615 179.615 0 0 0 -3.146 -2.413 l -0.562 -0.423 a 170.969 170.969 0 0 0 -3.125 -2.273 l -0.638 -0.45 a 163.362 163.362 0 0 0 -3.199 -2.199 c -0.059 -0.04 -0.118 -0.077 -0.177 -0.116 a 151.1 151.1 0 0 0 -3.093 -2.004 c -0.123 -0.077 -0.246 -0.161 -0.368 -0.238 c -0.073 -0.046 -0.146 -0.087 -0.219 -0.133 a 140.17 140.17 0 0 0 -3.125 -1.897 c -0.208 -0.123 -0.417 -0.243 -0.625 -0.365 a 131.985 131.985 0 0 0 -3.198 -1.809 c -0.065 -0.036 -0.13 -0.069 -0.196 -0.105 a 117.609 117.609 0 0 0 -3.087 -1.617 c -0.177 -0.09 -0.354 -0.182 -0.53 -0.27 a 109.143 109.143 0 0 0 -3.082 -1.482 c -0.093 -0.044 -0.188 -0.093 -0.282 -0.136 c -0.22 -0.102 -0.439 -0.195 -0.659 -0.294 a 84.621 84.621 0 0 0 -2.051 -0.898 c -0.313 -0.133 -0.626 -0.267 -0.938 -0.395 c -0.371 -0.153 -0.74 -0.301 -1.109 -0.448 c -0.309 -0.122 -0.618 -0.247 -0.925 -0.365 c -0.372 -0.144 -0.743 -0.281 -1.114 -0.419 c -0.304 -0.112 -0.607 -0.227 -0.91 -0.335 c -0.376 -0.136 -0.75 -0.263 -1.125 -0.392 c -0.293 -0.101 -0.588 -0.204 -0.88 -0.301 c -0.392 -0.13 -0.782 -0.252 -1.172 -0.374 c -0.272 -0.086 -0.546 -0.175 -0.817 -0.258 c -0.432 -0.13 -0.862 -0.251 -1.292 -0.373 c -0.227 -0.064 -0.455 -0.134 -0.681 -0.195 c -0.585 -0.16 -1.167 -0.31 -1.748 -0.453 l -0.206 -0.053 l -0.037 -0.01 c -0.079 -0.019 -0.156 -0.034 -0.234 -0.052 a 66.501 66.501 0 0 0 -2.004 -0.448 c -0.25 -0.052 -0.5 -0.098 -0.75 -0.147 a 61.163 61.163 0 0 0 -2.324 -0.41 c -0.511 -0.08 -1.02 -0.151 -1.526 -0.216 c -0.234 -0.03 -0.468 -0.063 -0.701 -0.09 a 52.956 52.956 0 0 0 -2.168 -0.213 c -0.043 -0.003 -0.086 -0.004 -0.13 -0.008 a 49.282 49.282 0 0 0 -2.015 -0.106 c -0.23 -0.008 -0.458 -0.009 -0.687 -0.014 a 50.37 50.37 0 0 0 -2.198 0.006 c -0.481 0.013 -0.96 0.035 -1.437 0.063 c -0.219 0.013 -0.439 0.023 -0.657 0.04 a 42.096 42.096 0 0 0 -2.773 0.294 c -5.538 0.791 -10.332 2.664 -14.37 5.485 l -35.876 25.061 c 4.038 -2.82 8.832 -4.694 14.37 -5.484 a 40.98 40.98 0 0 1 2.773 -0.295 c 0.218 -0.017 0.438 -0.026 0.657 -0.039 a 42.445 42.445 0 0 1 2.182 -0.078 c 0.481 -0.005 0.966 -0.002 1.453 0.008 c 0.228 0.005 0.455 0.007 0.684 0.014 a 52.68 52.68 0 0 1 2.041 0.108 l 0.102 0.006 c 0.721 0.055 1.448 0.129 2.179 0.214 c 0.223 0.026 0.448 0.059 0.671 0.087 a 58.285 58.285 0 0 1 3.916 0.638 c 0.228 0.045 0.455 0.087 0.684 0.134 c 0.734 0.152 1.471 0.315 2.212 0.495 l 0.089 0.021 l 0.121 0.031 c 0.609 0.149 1.22 0.307 1.834 0.475 c 0.209 0.058 0.419 0.121 0.629 0.181 c 0.447 0.126 0.895 0.253 1.344 0.389 c 0.257 0.078 0.517 0.163 0.774 0.244 c 0.406 0.127 0.811 0.253 1.219 0.388 c 0.277 0.093 0.556 0.19 0.834 0.286 c 0.39 0.134 0.781 0.267 1.172 0.407 c 0.289 0.104 0.579 0.213 0.868 0.32 c 0.385 0.143 0.771 0.286 1.158 0.436 c 0.293 0.113 0.588 0.231 0.882 0.349 c 0.384 0.152 0.768 0.306 1.154 0.465 c 0.298 0.124 0.598 0.251 0.896 0.378 c 0.385 0.164 0.771 0.328 1.156 0.498 a 116.814 116.814 0 0 1 1.877 0.847 c 1.015 0.471 2.033 0.959 3.055 1.47 l 0.569 0.289 c 1.005 0.51 2.012 1.035 3.022 1.584 c 0.083 0.045 0.166 0.087 0.249 0.133 c 1.053 0.574 2.11 1.177 3.168 1.793 c 0.218 0.127 0.436 0.253 0.653 0.382 c 1.033 0.609 2.068 1.236 3.104 1.885 c 0.203 0.127 0.406 0.257 0.609 0.386 c 1.017 0.643 2.035 1.299 3.054 1.978 l 0.209 0.138 c 1.059 0.707 2.119 1.44 3.178 2.186 a 168.388 168.388 0 0 1 3.764 2.723 c 0.199 0.148 0.397 0.3 0.596 0.448 c 1.029 0.773 2.057 1.56 3.085 2.367 c 0.062 0.048 0.124 0.095 0.185 0.144 c 1.197 0.941 2.392 1.911 3.586 2.898 l 0.487 0.401 a 201.5 201.5 0 0 1 3.429 2.922 l 0.591 0.516 c 1.13 0.992 2.258 2.003 3.383 3.032 l 0.568 0.523 a 225.362 225.362 0 0 1 3.412 3.211 c 0.224 0.216 0.447 0.435 0.67 0.651 a 207.368 207.368 0 0 1 2.543 2.505 a 242.51 242.51 0 0 1 1.671 1.689 c 0.253 0.258 0.506 0.515 0.758 0.774 c 0.742 0.765 1.482 1.536 2.219 2.316 l 0.158 0.166 a 238.017 238.017 0 0 1 5.542 6.085 c 0.524 0.594 1.047 1.192 1.567 1.795 c 0.257 0.297 0.515 0.593 0.771 0.892 a 274.41 274.41 0 0 1 1.995 2.355 c 0.098 0.117 0.196 0.231 0.294 0.349 a 266.3 266.3 0 0 1 2.248 2.737 c 0.141 0.175 0.281 0.352 0.422 0.525 a 267.922 267.922 0 0 1 3.494 4.427 l 0.344 0.45 a 266.108 266.108 0 0 1 3.438 4.574 c 0.103 0.14 0.203 0.281 0.306 0.421 c 1.141 1.56 2.27 3.136 3.383 4.731 c 0.089 0.127 0.176 0.257 0.265 0.384 a 265.4 265.4 0 0 1 3.324 4.891 l 0.219 0.335 a 264.618 264.618 0 0 1 3.262 5.057 l 0.167 0.27 a 267.148 267.148 0 0 1 3.197 5.23 l 0.112 0.191 a 261.846 261.846 0 0 1 3.19 5.522 a 250.392 250.392 0 0 1 5.534 10.414 c 0.187 0.372 0.359 0.741 0.543 1.112 a 230.263 230.263 0 0 1 1.813 3.721 l 0.123 0.263 a 222.654 222.654 0 0 1 2.355 5.156 a 220.565 220.565 0 0 1 1.598 3.694 c 0.088 0.209 0.181 0.419 0.268 0.628 a 206.44 206.44 0 0 1 1.699 4.199 c 0.135 0.342 0.264 0.682 0.396 1.022 c 0.427 1.103 0.84 2.2 1.241 3.292 c 0.131 0.357 0.264 0.715 0.393 1.071 a 192.76 192.76 0 0 1 1.421 4.072 c 0.06 0.18 0.115 0.358 0.175 0.538 c 0.366 1.101 0.713 2.194 1.053 3.283 c 0.258 0.83 0.502 1.653 0.745 2.477 c 0.208 0.705 0.418 1.411 0.615 2.111 c 0.231 0.822 0.446 1.636 0.661 2.45 c 0.182 0.686 0.368 1.374 0.538 2.055 c 0.207 0.822 0.395 1.635 0.584 2.449 c 0.154 0.657 0.314 1.318 0.457 1.971 c 0.183 0.833 0.345 1.653 0.511 2.477 c 0.125 0.623 0.26 1.252 0.375 1.869 c 0.116 0.623 0.215 1.235 0.321 1.853 c 0.128 0.742 0.262 1.487 0.375 2.221 c 0.099 0.635 0.179 1.258 0.267 1.885 c 0.098 0.704 0.201 1.411 0.286 2.106 c 0.076 0.625 0.135 1.239 0.2 1.857 c 0.072 0.685 0.148 1.371 0.207 2.045 c 0.053 0.605 0.09 1.198 0.131 1.796 c 0.048 0.671 0.098 1.344 0.131 2.006 c 0.032 0.63 0.048 1.249 0.067 1.871 c 0.02 0.629 0.044 1.261 0.052 1.881 c 0.007 0.614 -0.003 1.217 -0.008 1.822 c -0.005 0.604 -0.006 1.212 -0.022 1.807 c -0.019 0.609 -0.053 1.205 -0.084 1.804 c -0.029 0.572 -0.054 1.149 -0.095 1.712 c -0.043 0.596 -0.104 1.176 -0.16 1.76 c -0.052 0.541 -0.1 1.086 -0.162 1.616 a 68.256 68.256 0 0 1 -0.424 2.952 c -0.033 0.199 -0.056 0.405 -0.09 0.603 a 61.005 61.005 0 0 1 -0.691 3.381 c -0.078 0.332 -0.172 0.649 -0.254 0.976 a 53.476 53.476 0 0 1 -0.614 2.257 c -0.12 0.399 -0.253 0.787 -0.382 1.179 c -0.21 0.643 -0.428 1.278 -0.66 1.899 c -0.173 0.461 -0.353 0.914 -0.537 1.362 c -0.161 0.39 -0.322 0.778 -0.492 1.158 c -0.211 0.473 -0.434 0.934 -0.658 1.391 c -0.181 0.367 -0.36 0.734 -0.55 1.092 c -0.238 0.449 -0.489 0.884 -0.741 1.317 c -0.199 0.342 -0.396 0.687 -0.604 1.02 c -0.267 0.427 -0.549 0.837 -0.83 1.248 c -0.216 0.314 -0.427 0.634 -0.65 0.938 c -0.301 0.408 -0.617 0.797 -0.933 1.188 c -0.228 0.282 -0.449 0.572 -0.685 0.846 c -0.342 0.396 -0.702 0.768 -1.06 1.144 c -0.232 0.243 -0.455 0.497 -0.694 0.732 c -0.406 0.4 -0.834 0.774 -1.262 1.15 c -0.211 0.186 -0.411 0.385 -0.628 0.564 a 29.815 29.815 0 0 1 -2.023 1.549 l 35.876 -25.061 a 30.13 30.13 0 0 0 2.023 -1.548 c 0.22 -0.184 0.425 -0.386 0.64 -0.576 c 0.422 -0.371 0.846 -0.741 1.248 -1.138 c 0.246 -0.241 0.476 -0.502 0.714 -0.753 c 0.35 -0.368 0.703 -0.733 1.038 -1.12 c 0.243 -0.283 0.472 -0.582 0.708 -0.875 c 0.307 -0.381 0.615 -0.759 0.907 -1.156 c 0.232 -0.315 0.451 -0.646 0.674 -0.972 c 0.273 -0.399 0.547 -0.797 0.807 -1.212 c 0.216 -0.345 0.419 -0.702 0.626 -1.058 c 0.243 -0.42 0.487 -0.841 0.718 -1.275 c 0.196 -0.371 0.383 -0.752 0.569 -1.133 c 0.218 -0.443 0.434 -0.889 0.638 -1.346 c 0.177 -0.395 0.345 -0.798 0.511 -1.202 c 0.11 -0.268 0.232 -0.523 0.338 -0.795 c 0.066 -0.17 0.118 -0.354 0.183 -0.525 c 0.238 -0.635 0.461 -1.286 0.676 -1.944 c 0.129 -0.384 0.258 -0.757 0.374 -1.143 z" style="stroke: none; stroke-width: 1; stroke-dasharray: none; stroke-linecap: butt; stroke-linejoin: miter; stroke-miterlimit: 10; fill: #49331e; fill-rule: nonzero; opacity: 1;" transform="" stroke-linecap="round" />
  <path d="M 550.521 656.834 l -35.876 25.061 a 55.002 55.002 0 0 1 -9.617 5.366 l 35.876 -25.061 a 54.994 54.994 0 0 0 9.617 -5.366" style="stroke: none; stroke-width: 1; stroke-dasharray: none; stroke-linecap: butt; stroke-linejoin: miter; stroke-miterlimit: 10; fill: #49331e; fill-rule: nonzero; opacity: 1;" transform="" stroke-linecap="round" />
  <path d="M 272.134 282.115 l -35.876 25.061 a 55.354 55.354 0 0 1 10.074 -9.08 l 35.876 -25.061 a 55.358 55.358 0 0 0 -10.074 9.08" style="stroke: none; stroke-width: 1; stroke-dasharray: none; stroke-linecap: butt; stroke-linejoin: miter; stroke-miterlimit: 10; fill: #49331e; fill-rule: nonzero; opacity: 1;" transform="" stroke-linecap="round" />
  <path d="M 540.904 662.2 l -35.876 25.061 l -30.924 -34.143 l 35.876 -25.061 z" style="stroke: none; stroke-width: 1; stroke-dasharray: none; stroke-linecap: butt; stroke-linejoin: miter; stroke-miterlimit: 10; fill: #724c28; fill-rule: nonzero; opacity: 1;" transform="" stroke-linecap="round" />
  <path d="M 295.204 324.853 l -35.876 25.061 l -23.071 -42.738 l 35.877 -25.061 z" style="stroke: none; stroke-width: 1; stroke-dasharray: none; stroke-linecap: butt; stroke-linejoin: miter; stroke-miterlimit: 10; fill: #724c28; fill-rule: nonzero; opacity: 1;" transform="" stroke-linecap="round" />
  <path d="M 509.98 628.057 l -35.877 25.062 a 54.54 54.54 0 0 1 -6.551 1.219 c -2.174 0.27 -4.396 0.41 -6.652 0.448 l 35.876 -25.062 a 62.755 62.755 0 0 0 6.651 -0.447 a 54.646 54.646 0 0 0 6.553 -1.22 z" style="stroke: none; stroke-width: 1; stroke-dasharray: none; stroke-linecap: butt; stroke-linejoin: miter; stroke-miterlimit: 10; fill: #49331e; fill-rule: nonzero; opacity: 1;" transform=" matrix(1 0 0 1 0 0) " stroke-linecap="round" />
  <path d="M 509.98 628.057 l -35.877 25.062 a 54.54 54.54 0 0 1 -6.551 1.219 c -2.174 0.27 -4.396 0.41 -6.652 0.448 l 35.876 -25.062 a 62.755 62.755 0 0 0 6.651 -0.447 a 54.646 54.646 0 0 0 6.553 -1.22" style="stroke: none; stroke-width: 1; stroke-dasharray: none; stroke-linecap: butt; stroke-linejoin: miter; stroke-miterlimit: 10; fill: #49331e; fill-rule: nonzero; opacity: 1;" transform="" stroke-linecap="round" />
  <path d="M 290.167 335.437 l -35.876 25.061 c 1.394 -3.815 3.071 -7.354 5.037 -10.583 l 35.876 -25.061 c -1.966 3.229 -3.643 6.767 -5.037 10.583 z" style="stroke: none; stroke-width: 1; stroke-dasharray: none; stroke-linecap: butt; stroke-linejoin: miter; stroke-miterlimit: 10; fill: #49331e; fill-rule: nonzero; opacity: 1;" transform=" matrix(1 0 0 1 0 0) " stroke-linecap="round" />
  <path d="M 290.167 335.437 l -35.876 25.061 c 0.16 -0.438 0.324 -0.873 0.492 -1.304 l 35.876 -25.061 c -0.168 0.43 -0.332 0.865 -0.492 1.304 M 290.659 334.132 l -35.876 25.061 c 1.292 -3.32 2.805 -6.421 4.545 -9.279 l 35.876 -25.061 c -1.74 2.858 -3.254 5.96 -4.545 9.279" style="stroke: none; stroke-width: 1; stroke-dasharray: none; stroke-linecap: butt; stroke-linejoin: miter; stroke-miterlimit: 10; fill: #49331e; fill-rule: nonzero; opacity: 1;" transform="" stroke-linecap="round" />
  <path d="M 471.404 658.786 l -35.876 25.061 l -21.263 -41.025 l 35.876 -25.06 z" style="stroke: none; stroke-width: 1; stroke-dasharray: none; stroke-linecap: butt; stroke-linejoin: miter; stroke-miterlimit: 10; fill: #724c28; fill-rule: nonzero; opacity: 1;" transform="" stroke-linecap="round" />
  <path d="M 458.706 690.624 c 0.501 0.098 1.005 0.203 1.504 0.293 c 0.839 0.152 1.671 0.284 2.503 0.415 c 0.423 0.066 0.848 0.143 1.269 0.204 c 1.246 0.182 2.486 0.342 3.718 0.475 l 35.877 -25.061 a 103.127 103.127 0 0 1 -3.725 -0.476 c -0.407 -0.06 -0.818 -0.134 -1.228 -0.198 c -0.845 -0.133 -1.688 -0.266 -2.54 -0.42 c -0.495 -0.09 -0.995 -0.194 -1.492 -0.291 c -0.772 -0.151 -1.544 -0.302 -2.321 -0.47 c -0.532 -0.115 -1.067 -0.242 -1.602 -0.365 c -0.725 -0.166 -1.449 -0.336 -2.178 -0.517 c -0.804 -0.2 -1.61 -0.417 -2.419 -0.635 c -0.599 -0.161 -1.196 -0.317 -1.798 -0.488 c -0.844 -0.24 -1.693 -0.5 -2.543 -0.759 c -0.571 -0.174 -1.141 -0.34 -1.714 -0.522 c -0.938 -0.299 -1.88 -0.62 -2.822 -0.94 c -0.49 -0.167 -0.978 -0.323 -1.47 -0.496 a 156.897 156.897 0 0 1 -4.321 -1.587 l -35.876 25.061 a 159.86 159.86 0 0 0 4.316 1.585 c 0.507 0.179 1.01 0.34 1.516 0.512 c 0.928 0.315 1.856 0.632 2.779 0.926 c 0.572 0.183 1.14 0.348 1.71 0.521 c 0.854 0.261 1.709 0.521 2.559 0.764 c 0.586 0.167 1.169 0.319 1.753 0.477 c 0.826 0.223 1.651 0.443 2.472 0.648 c 0.201 0.05 0.405 0.109 0.605 0.158 c 0.51 0.124 1.014 0.229 1.521 0.347 c 0.547 0.126 1.096 0.256 1.64 0.374 c 0.773 0.165 1.539 0.316 2.307 0.465 z M 253.333 343.213 a 154.155 154.155 0 0 1 0.121 -5.393 c 0.052 -1.273 0.122 -2.531 0.205 -3.779 c 0.028 -0.429 0.049 -0.863 0.082 -1.289 c 0.125 -1.645 0.275 -3.269 0.456 -4.868 c 0.135 -1.201 0.287 -2.388 0.454 -3.562 c 0.042 -0.299 0.09 -0.594 0.135 -0.891 c 0.14 -0.935 0.29 -1.86 0.45 -2.777 c 0.059 -0.338 0.117 -0.678 0.179 -1.014 c 0.214 -1.168 0.44 -2.327 0.688 -3.465 l -35.876 25.061 a 107.728 107.728 0 0 0 -0.691 3.482 c -0.059 0.322 -0.115 0.646 -0.172 0.97 c -0.164 0.938 -0.317 1.885 -0.459 2.841 c -0.042 0.28 -0.087 0.557 -0.127 0.839 a 121.051 121.051 0 0 0 -0.437 3.379 c -0.007 0.065 -0.011 0.134 -0.019 0.2 a 130.239 130.239 0 0 0 -0.456 4.866 c -0.033 0.427 -0.054 0.863 -0.082 1.294 a 147.297 147.297 0 0 0 -0.205 3.773 a 158.258 158.258 0 0 0 -0.121 5.394 c -0.003 0.533 -0.011 1.063 -0.009 1.599 c 0.007 1.754 0.034 3.521 0.097 5.316 l 35.876 -25.062 a 170.58 170.58 0 0 1 -0.097 -5.316 c -0.003 -0.537 0.005 -1.066 0.008 -1.598 z" style="stroke: none; stroke-width: 1; stroke-dasharray: none; stroke-linecap: butt; stroke-linejoin: miter; stroke-miterlimit: 10; fill: #49331e; fill-rule: nonzero; opacity: 1;" transform="" stroke-linecap="round" />
  <path d="M 253.421 350.127 l -35.876 25.061 l 32.581 34.766 l 35.877 -25.06 z" style="stroke: none; stroke-width: 1; stroke-dasharray: none; stroke-linecap: butt; stroke-linejoin: miter; stroke-miterlimit: 10; fill: #724c28; fill-rule: nonzero; opacity: 1;" transform="" stroke-linecap="round" />
  <path d="M 450.141 617.762 l -35.876 25.061 c -5.665 -2.742 -11.392 -5.9 -17.159 -9.471 l 35.876 -25.061 c 5.767 3.57 11.494 6.729 17.159 9.471 z" style="stroke: none; stroke-width: 1; stroke-dasharray: none; stroke-linecap: butt; stroke-linejoin: miter; stroke-miterlimit: 10; fill: #49331e; fill-rule: nonzero; opacity: 1;" transform=" matrix(1 0 0 1 0 0) " stroke-linecap="round" />
  <path d="M 450.141 617.762 l -35.876 25.061 c -5.665 -2.742 -11.392 -5.9 -17.159 -9.471 l 35.876 -25.061 c 5.767 3.57 11.494 6.729 17.159 9.471" style="stroke: none; stroke-width: 1; stroke-dasharray: none; stroke-linecap: butt; stroke-linejoin: miter; stroke-miterlimit: 10; fill: #49331e; fill-rule: nonzero; opacity: 1;" transform="" stroke-linecap="round" />
  <path d="M 288.854 402.478 l -35.876 25.061 c -1.26 -6.043 -2.209 -11.912 -2.851 -17.584 l 35.876 -25.061 c 0.641 5.67 1.591 11.541 2.851 17.584 z" style="stroke: none; stroke-width: 1; stroke-dasharray: none; stroke-linecap: butt; stroke-linejoin: miter; stroke-miterlimit: 10; fill: #49331e; fill-rule: nonzero; opacity: 1;" transform=" matrix(1 0 0 1 0 0) " stroke-linecap="round" />
  <path d="M 288.854 402.478 l -35.876 25.061 a 197.42 197.42 0 0 1 -0.758 -3.813 l 35.876 -25.061 c 0.238 1.263 0.491 2.534 0.758 3.813 M 288.095 398.664 l -35.876 25.061 a 187.681 187.681 0 0 1 -2.093 -13.771 l 35.876 -25.061 a 188.303 188.303 0 0 0 2.093 13.771" style="stroke: none; stroke-width: 1; stroke-dasharray: none; stroke-linecap: butt; stroke-linejoin: miter; stroke-miterlimit: 10; fill: #49331e; fill-rule: nonzero; opacity: 1;" transform="" stroke-linecap="round" />
  <path d="M 377.321 650.159 a 313.637 313.637 0 0 0 4.228 3.159 c 0.402 0.296 0.804 0.593 1.206 0.886 a 309.91 309.91 0 0 0 4.059 2.909 l 35.876 -25.061 c -1.35 -0.949 -2.699 -1.92 -4.049 -2.902 c -0.411 -0.299 -0.822 -0.604 -1.233 -0.905 a 294.962 294.962 0 0 1 -2.926 -2.178 c -0.431 -0.324 -0.862 -0.648 -1.293 -0.976 a 332.631 332.631 0 0 1 -3.375 -2.604 c -0.233 -0.182 -0.466 -0.359 -0.7 -0.542 c -0.235 -0.186 -0.471 -0.379 -0.707 -0.565 a 345.187 345.187 0 0 1 -4.409 -3.541 c -0.543 -0.443 -1.085 -0.896 -1.627 -1.344 a 369.268 369.268 0 0 1 -5.269 -4.44 a 398.685 398.685 0 0 1 -3.552 -3.095 c -0.517 -0.456 -1.035 -0.907 -1.551 -1.367 a 395.871 395.871 0 0 1 -5.03 -4.557 l -5.811 -37.133 a 360.95 360.95 0 0 1 -16.095 -17.574 l -35.876 25.062 a 360.909 360.909 0 0 0 16.095 17.574 l 5.811 37.133 a 394.807 394.807 0 0 0 5.023 4.551 c 0.525 0.468 1.052 0.927 1.578 1.39 a 362.56 362.56 0 0 0 5.314 4.599 c 1.147 0.974 2.296 1.934 3.446 2.885 c 0.563 0.466 1.125 0.935 1.688 1.395 a 348.379 348.379 0 0 0 4.315 3.467 c 0.219 0.173 0.438 0.355 0.657 0.527 l 0.137 0.106 c 0.208 0.164 0.417 0.322 0.626 0.485 c 1.148 0.897 2.296 1.783 3.444 2.656 z M 278.197 448.886 a 404.604 404.604 0 0 1 -2.145 -5.102 c -0.216 -0.523 -0.427 -1.046 -0.64 -1.567 a 388.82 388.82 0 0 1 -1.462 -3.635 c -0.216 -0.547 -0.433 -1.093 -0.646 -1.638 a 350.578 350.578 0 0 1 -1.585 -4.13 c -0.116 -0.307 -0.236 -0.614 -0.351 -0.921 a 334.533 334.533 0 0 1 -1.813 -4.963 c -0.163 -0.456 -0.32 -0.909 -0.481 -1.364 a 348.12 348.12 0 0 1 -1.812 -5.267 c -0.416 -1.243 -0.821 -2.48 -1.218 -3.715 c -0.132 -0.412 -0.269 -0.826 -0.4 -1.236 a 303.307 303.307 0 0 1 -1.084 -3.511 c -0.174 -0.571 -0.357 -1.147 -0.527 -1.717 a 314.58 314.58 0 0 1 -1.487 -5.132 l -35.876 25.061 c 0.476 1.699 0.972 3.407 1.484 5.124 c 0.173 0.58 0.359 1.165 0.536 1.747 c 0.311 1.019 0.616 2.035 0.939 3.06 c 0.046 0.146 0.095 0.292 0.142 0.438 c 0.127 0.399 0.26 0.802 0.389 1.202 a 340.614 340.614 0 0 0 1.763 5.331 c 0.421 1.236 0.852 2.477 1.291 3.721 c 0.153 0.434 0.302 0.866 0.458 1.301 a 357.145 357.145 0 0 0 1.83 5.008 c 0.098 0.261 0.2 0.522 0.298 0.783 a 358.322 358.322 0 0 0 1.643 4.278 c 0.202 0.517 0.407 1.034 0.612 1.552 c 0.492 1.242 0.993 2.488 1.503 3.736 c 0.203 0.497 0.403 0.992 0.609 1.49 a 394.123 394.123 0 0 0 2.155 5.127 l 33.22 17.645 l 35.876 -25.061 l -33.221 -17.645 z" style="stroke: none; stroke-width: 1; stroke-dasharray: none; stroke-linecap: butt; stroke-linejoin: miter; stroke-miterlimit: 10; fill: #724c28; fill-rule: nonzero; opacity: 1;" transform="" stroke-linecap="round" />
  <path d="M 365.063 548.33 l -35.875 25.062 l -24.938 3.825 l 35.875 -25.061 z" style="stroke: none; stroke-width: 1; stroke-dasharray: none; stroke-linecap: butt; stroke-linejoin: miter; stroke-miterlimit: 10; fill: #49331e; fill-rule: nonzero; opacity: 1;" transform="" stroke-linecap="round" />
  <path d="M 317.306 478.176 a 358.943 358.943 0 0 1 -5.889 -11.646 l -35.876 25.061 a 357.944 357.944 0 0 0 10.653 20.364 l -11.6 23.18 l 35.876 -25.061 l 11.6 -23.181 a 380.223 380.223 0 0 1 -4.764 -8.717 z" style="stroke: none; stroke-width: 1; stroke-dasharray: none; stroke-linecap: butt; stroke-linejoin: miter; stroke-miterlimit: 10; fill: #49331e; fill-rule: nonzero; opacity: 1;" transform="" stroke-linecap="round" />
  <path d="M 340.125 552.156 l -35.876 25.061 a 479.39 479.39 0 0 1 -29.656 -42.083 l 35.876 -25.061 a 479.815 479.815 0 0 0 29.656 42.083 z" style="stroke: none; stroke-width: 1; stroke-dasharray: none; stroke-linecap: butt; stroke-linejoin: miter; stroke-miterlimit: 10; fill: #724c28; fill-rule: nonzero; opacity: 1;" transform=" matrix(1 0 0 1 0 0) " stroke-linecap="round" />
  <path d="M 340.125 552.156 l -35.876 25.061 a 479.39 479.39 0 0 1 -29.656 -42.083 l 35.876 -25.061 a 479.815 479.815 0 0 0 29.656 42.083" style="stroke: none; stroke-width: 1; stroke-dasharray: none; stroke-linecap: butt; stroke-linejoin: miter; stroke-miterlimit: 10; fill: #724c28; fill-rule: nonzero; opacity: 1;" transform="" stroke-linecap="round" />
  <path d="M 516.602 453.489 a 358.475 358.475 0 0 1 4.355 8.49 l 32.903 17.481 c 6.616 15.226 11.935 30.035 15.972 44.228 l -25.445 2.428 c 1.447 6.45 2.541 12.718 3.293 18.758 l 31.576 33.698 c 0.52 12.389 -0.295 23.822 -2.419 34.073 l -32.415 -18.328 c -1.478 4.43 -3.328 8.503 -5.531 12.192 l 22.05 40.847 c -5.475 6.401 -12.16 11.423 -20.036 14.844 l -30.924 -34.144 a 54.427 54.427 0 0 1 -6.553 1.22 c -2.173 0.269 -4.395 0.41 -6.651 0.447 l 6.8 37.227 c -10.254 -1.109 -21.053 -3.896 -32.172 -8.164 l -21.263 -41.024 c -5.666 -2.742 -11.393 -5.9 -17.159 -9.471 l -10.293 23.762 c -11.96 -8.409 -23.943 -18.142 -35.72 -29.016 l -5.811 -37.133 a 360.95 360.95 0 0 1 -16.095 -17.574 l -24.938 3.826 a 479.602 479.602 0 0 1 -29.656 -42.083 l 11.6 -23.181 a 358.943 358.943 0 0 1 -10.652 -20.363 l -33.22 -17.645 c -6.493 -15.12 -11.711 -29.819 -15.653 -43.897 l 26.31 -2.511 c -1.26 -6.043 -2.209 -11.913 -2.851 -17.584 l -32.582 -34.767 c -0.435 -12.359 0.462 -23.753 2.68 -33.952 l 34.066 19.261 c 1.394 -3.815 3.071 -7.354 5.037 -10.583 l -23.07 -42.738 c 5.578 -6.409 12.391 -11.399 20.417 -14.757 l 32.571 35.962 a 55.967 55.967 0 0 1 5.358 -0.932 c 1.939 -0.245 3.923 -0.376 5.931 -0.438 l -7.133 -39.024 c 10.429 1.144 21.404 4.003 32.71 8.405 l 22.163 42.759 c 4.87 2.37 9.786 5.052 14.734 8.046 l 10.68 -24.653 c 12.157 8.514 24.335 18.394 36.31 29.458 l 5.916 37.836 a 359.2 359.2 0 0 1 14.608 15.724 l 25.342 -3.884 a 478.355 478.355 0 0 1 30.123 42.551 l -11.504 22.999 a 378.029 378.029 0 0 1 6.241 11.324 z m -40.321 123.163 c 36.978 -5.277 40.75 -58.839 8.275 -120.211 c -32.687 -61.781 -89.72 -108.085 -127.387 -103.42 a 44.05 44.05 0 0 0 -0.741 0.098 c -36.977 5.278 -40.749 58.84 -8.274 120.221 c 32.686 61.781 89.715 108.076 127.386 103.411 c 0.251 -0.03 0.496 -0.064 0.741 -0.099" style="stroke: none; stroke-width: 1; stroke-dasharray: none; stroke-linecap: butt; stroke-linejoin: miter; stroke-miterlimit: 10; fill: #c7b299; fill-rule: nonzero; opacity: 1;" transform="" stroke-linecap="round" />
</g>
  <g transform="translate(368.91 300.47) scale(3.75 3.67)">
   <text font-family="ADAMCG PRO" font-size="40" font-weight="normal" style="stroke: none; stroke-width: 1; stroke-dasharray: none; stroke-linecap: butt; stroke-linejoin: miter; stroke-miterlimit: 10; fill: #000000; fill-rule: nonzero; opacity: 1;" ><tspan x="-26.31" y="-43.45" style="stroke: none; stroke-width: 0; stroke-dasharray: none; stroke-linecap: butt; stroke-linejoin: miter; stroke-miterlimit: 4; fill: #000000; fill-rule: ; opacity: 1;">D</tspan><tspan x="0.68" y="-43.45" style="stroke: none; stroke-width: 0; stroke-dasharray: none; stroke-linecap: butt; stroke-linejoin: miter; stroke-miterlimit: 4; fill: #000000; fill-rule: ; opacity: 1;">r</tspan><tspan x="-26.31" y="8.98" style="stroke: none; stroke-width: 0; stroke-dasharray: none; stroke-linecap: butt; stroke-linejoin: miter; stroke-miterlimit: 4; fill: #000000; fill-rule: ; opacity: 1;"> </tspan><tspan x="-26.31" y="61.42" style="stroke: none; stroke-width: 0; stroke-dasharray: none; stroke-linecap: butt; stroke-linejoin: miter; stroke-miterlimit: 4; fill: #000000; fill-rule: ; opacity: 1;"> </tspan></text>
 </g>
<g style="stroke: none; stroke-width: 1; stroke-dasharray: none; stroke-linecap: butt; stroke-linejoin: miter; stroke-miterlimit: 10; fill: none; fill-rule: nonzero; opacity: 1;" transform="translate(493.60999999999984 223.36) scale(0.35 0.35)" >
  <polygon points="41.74,18.38 61,7.26 80.26,18.38 80.26,40.62 61,51.73 41.74,40.62 " style="stroke: none; stroke-width: 1; stroke-dasharray: none; stroke-linecap: butt; stroke-linejoin: miter; stroke-miterlimit: 10; fill: #ffffff; fill-rule: nonzero; opacity: 1;" transform="  matrix(1 0 0 1 0 0) "/>
  <path d="M 117.558 38.951 C 114.396 33.493 103.293 13.215 94.76 0 h -8.619 v 43.296 l -25.14 14.516 l -25.14 -14.516 V 0 h -8.616 c -8.532 13.215 -19.637 33.493 -22.8 38.951 c -4.312 7.438 -6.674 16.894 -1.484 24.938 c 5.192 8.044 33.324 28.959 33.324 28.959 v 35.128 h 19.945 l 0 0 h 29.49 V 92.848 c 0 0 28.131 -20.915 33.32 -28.959 C 124.234 55.844 121.87 46.389 117.558 38.951 z" style="stroke: none; stroke-width: 1; stroke-dasharray: none; stroke-linecap: butt; stroke-linejoin: miter; stroke-miterlimit: 10; fill: #3F3F3F; fill-rule: nonzero; opacity: 1;" transform=" matrix(1 0 0 1 0 0) " stroke-linecap="round" />
</g>
<g style="stroke: none; stroke-width: 1; stroke-dasharray: none; stroke-linecap: butt; stroke-linejoin: miter; stroke-miterlimit: 10; fill: none; fill-rule: nonzero; opacity: 1;" transform="translate(503.53 261.4) scale(0.35 1.16)" >
  <rect x="0" y="0" rx="0" ry="0" width="60" height="60" style="stroke: none; stroke-width: 1; stroke-dasharray: none; stroke-linecap: butt; stroke-linejoin: miter; stroke-miterlimit: 10; fill: #3f3f35; fill-rule: nonzero; opacity: 1;" transform=" matrix(1 0 0 1 0 0) "/>
</g>
  <g transform="translate(562.03 291.22) scale(3.32 3.32)">
   <text font-family="ADAMCG PRO" font-size="40" font-weight="normal" style="stroke: none; stroke-width: 1; stroke-dasharray: none; stroke-linecap: butt; stroke-linejoin: miter; stroke-miterlimit: 10; fill: #000000; fill-rule: nonzero; opacity: 1;" ><tspan x="-70.9" y="8.98" style="stroke: none; stroke-width: 0; stroke-dasharray: none; stroke-linecap: butt; stroke-linejoin: miter; stroke-miterlimit: 4; fill: #000000; fill-rule: ; opacity: 1;">P</tspan><tspan x="-48.48" y="8.98" style="stroke: none; stroke-width: 0; stroke-dasharray: none; stroke-linecap: butt; stroke-linejoin: miter; stroke-miterlimit: 4; fill: #000000; fill-rule: ; opacity: 1;">h</tspan><tspan x="-21.17" y="8.98" style="stroke: none; stroke-width: 0; stroke-dasharray: none; stroke-linecap: butt; stroke-linejoin: miter; stroke-miterlimit: 4; fill: #000000; fill-rule: ; opacity: 1;"> </tspan><tspan x="-9.18" y="8.98" style="stroke: none; stroke-width: 0; stroke-dasharray: none; stroke-linecap: butt; stroke-linejoin: miter; stroke-miterlimit: 4; fill: #000000; fill-rule: ; opacity: 1;">S</tspan><tspan x="11.93" y="8.98" style="stroke: none; stroke-width: 0; stroke-dasharray: none; stroke-linecap: butt; stroke-linejoin: miter; stroke-miterlimit: 4; fill: #000000; fill-rule: ; opacity: 1;">i</tspan><tspan x="22.71" y="8.98" style="stroke: none; stroke-width: 0; stroke-dasharray: none; stroke-linecap: butt; stroke-linejoin: miter; stroke-miterlimit: 4; fill: #000000; fill-rule: ; opacity: 1;">c</tspan><tspan x="49.79" y="8.98" style="stroke: none; stroke-width: 0; stroke-dasharray: none; stroke-linecap: butt; stroke-linejoin: miter; stroke-miterlimit: 4; fill: #000000; fill-rule: ; opacity: 1;">s</tspan></text>
 </g>
</svg>