<?xml version="1.0" encoding="UTF-8" standalone="no" ?>
<!DOCTYPE svg PUBLIC "-//W3C//DTD SVG 1.1//EN" "http://www.w3.org/Graphics/SVG/1.1/DTD/svg11.dtd">
<svg xmlns="http://www.w3.org/2000/svg" xmlns:xlink="http://www.w3.org/1999/xlink" version="1.1" width="299.71999999999997" height="299.71999999999997" xml:space="preserve">
<desc>Created with Fabric.js 1.6.0-rc.1</desc>
<defs></defs>
<g style="stroke: none; stroke-width: 1; stroke-dasharray: none; stroke-linecap: butt; stroke-linejoin: miter; stroke-miterlimit: 10; fill: none; fill-rule: nonzero; opacity: 1;" transform="translate(10 10) scale(5.18 5.18)" >
  <path d="M 11.487 44.641 l 9.113 -3.908 c 0.494 -0.247 0.896 -1.045 1.179 -1.614 c 0.255 -0.514 -0.126 -1.119 -0.7 -1.119 h -6.445 c 0 0 -2.33 -0.228 -4.127 -1 c -1.053 -0.452 -1.415 -1.049 -0.757 -1.986 c 1.925 -2.74 5.904 -9.192 6.033 -15.855 c 0 0 0.221 -10.257 10.34 -10.34 c 5.903 0.049 8.691 3.523 9.99 6.41 c 0.724 1.611 1.035 3.367 1.151 5.129 c 0.42 6.351 3.654 12.16 5.161 14.642 c 0.511 0.842 0.264 1.963 -0.581 2.469 C 40.458 38.298 38.761 38 38.761 38 h -6.488 c -0.634 0 -0.914 0.886 -0.416 1.279 c 0.406 0.32 0.793 0.609 1.002 0.723 l 7.58 4.587 c 1.094 0.597 1.967 1.483 2.561 2.529 C 38.451 50.795 32.664 53 26.359 53 c -6.574 0 -12.585 -2.399 -17.216 -6.363 C 9.748 45.812 10.537 45.116 11.487 44.641 z" style="stroke: none; stroke-width: 1; stroke-dasharray: none; stroke-linecap: butt; stroke-linejoin: miter; stroke-miterlimit: 10; fill: #E7ECED; fill-rule: nonzero; opacity: 1;" transform=" matrix(1 0 0 1 0 0) " stroke-linecap="round" />
  <path d="M 26.5 0 C 11.864 0 0 11.865 0 26.5 c 0 8.022 3.57 15.206 9.202 20.066 c 0.598 -0.793 1.364 -1.464 2.286 -1.925 l 9.113 -3.908 c 0.494 -0.247 0.896 -1.045 1.179 -1.614 c 0.255 -0.514 -0.126 -1.119 -0.7 -1.119 h -6.445 c 0 0 -2.33 -0.228 -4.127 -1 c -1.053 -0.452 -1.415 -1.049 -0.757 -1.986 c 1.925 -2.74 5.904 -9.192 6.033 -15.855 c 0 0 0.221 -10.257 10.34 -10.34 c 5.903 0.049 8.691 3.523 9.99 6.41 c 0.724 1.611 1.035 3.367 1.151 5.129 c 0.42 6.351 3.654 12.16 5.161 14.642 c 0.511 0.842 0.264 1.963 -0.581 2.469 C 40.458 38.298 38.761 38 38.761 38 h -6.488 c -0.634 0 -0.914 0.886 -0.416 1.279 c 0.406 0.32 0.793 0.609 1.002 0.723 l 7.58 4.587 c 1.086 0.592 1.952 1.469 2.545 2.505 c 0.026 0.025 0.055 0.048 0.08 0.075 C 49.117 42.313 53 34.864 53 26.5 C 53 11.865 41.136 0 26.5 0 z" style="stroke: none; stroke-width: 1; stroke-dasharray: none; stroke-linecap: butt; stroke-linejoin: miter; stroke-miterlimit: 10; fill: #556080; fill-rule: nonzero; opacity: 1;" transform=" matrix(1 0 0 1 0 0) " stroke-linecap="round" />
</g>
</svg>