<?xml version="1.0" encoding="UTF-8" standalone="no" ?>
<!DOCTYPE svg PUBLIC "-//W3C//DTD SVG 1.1//EN" "http://www.w3.org/Graphics/SVG/1.1/DTD/svg11.dtd">
<svg xmlns="http://www.w3.org/2000/svg" xmlns:xlink="http://www.w3.org/1999/xlink" version="1.1" width="492.90500000000003" height="409.59000000000003" xml:space="preserve">
<desc>Created with Fabric.js 1.6.0-rc.1</desc>
<defs></defs>
<g style="stroke: none; stroke-width: 1; stroke-dasharray: none; stroke-linecap: butt; stroke-linejoin: miter; stroke-miterlimit: 10; fill: none; fill-rule: nonzero; opacity: 1;" transform="translate(59.69 10) scale(0.97 0.97)" >
  <path d="M 147.692 304.641 h 104.763 v 49.231 H 147.692 V 304.641 z" style="stroke: none; stroke-width: 1; stroke-dasharray: none; stroke-linecap: butt; stroke-linejoin: miter; stroke-miterlimit: 10; fill: #CCD0D2; fill-rule: nonzero; opacity: 1;" transform=" matrix(1 0 0 1 0 0) " stroke-linecap="round" />
  <path d="M 135.483 353.871 h 129.182 c 6.695 0 12.209 5.514 12.209 12.209 s -5.514 12.209 -12.209 12.209 H 135.483 c -6.695 0 -12.209 -5.514 -12.209 -12.209 S 128.788 353.871 135.483 353.871 z" style="stroke: none; stroke-width: 1; stroke-dasharray: none; stroke-linecap: butt; stroke-linejoin: miter; stroke-miterlimit: 10; fill: #465762; fill-rule: nonzero; opacity: 1;" transform=" matrix(1 0 0 1 0 0) " stroke-linecap="round" />
  <path d="M 18.511 15.557 h 356.825 c 10.24 0 18.511 8.271 18.511 18.511 v 248.517 c 0 10.24 -393.846 10.24 -393.846 0 V 34.068 C 0 23.828 8.271 15.557 18.511 15.557 z" style="stroke: none; stroke-width: 1; stroke-dasharray: none; stroke-linecap: butt; stroke-linejoin: miter; stroke-miterlimit: 10; fill: #36434F; fill-rule: nonzero; opacity: 1;" transform=" matrix(1 0 0 1 0 0) " stroke-linecap="round" />
  <path d="M 18.511 34.068 h 356.825 V 243.2 H 18.511 V 34.068 z" style="stroke: none; stroke-width: 1; stroke-dasharray: none; stroke-linecap: butt; stroke-linejoin: miter; stroke-miterlimit: 10; fill: #465761; fill-rule: nonzero; opacity: 1;" transform=" matrix(1 0 0 1 0 0) " stroke-linecap="round" />
  <path d="M 153.994 89.6 h 86.252 c 3.545 0 6.302 2.757 6.302 6.302 v 92.16 c 0 3.545 -2.757 6.302 -6.302 6.302 h -86.252 c -3.545 0 -6.302 -2.757 -6.302 -6.302 V 95.508 C 147.692 92.357 150.449 89.6 153.994 89.6 z" style="stroke: none; stroke-width: 1; stroke-dasharray: none; stroke-linecap: butt; stroke-linejoin: miter; stroke-miterlimit: 10; fill: #465762; fill-rule: nonzero; opacity: 1;" transform=" matrix(1 0 0 1 0 0) " stroke-linecap="round" />
  <path d="M 172.505 163.249 h 49.231 v 12.209 h -49.231 V 163.249 z" style="stroke: none; stroke-width: 1; stroke-dasharray: none; stroke-linecap: butt; stroke-linejoin: miter; stroke-miterlimit: 10; fill: #465768; fill-rule: nonzero; opacity: 1;" transform=" matrix(1 0 0 1 0 0) " stroke-linecap="round" />
  <path d="M 196.923 107.717 c 10.24 0 18.511 8.271 18.511 18.511 s -8.271 18.511 -18.511 18.511 s -18.511 -8.271 -18.511 -18.511 S 186.683 107.717 196.923 107.717 z" style="stroke: none; stroke-width: 1; stroke-dasharray: none; stroke-linecap: butt; stroke-linejoin: miter; stroke-miterlimit: 10; fill: #465763; fill-rule: nonzero; opacity: 1;" transform=" matrix(1 0 0 1 0 0) " stroke-linecap="round" />
  <path d="M 147.692 304.641 h 104.763 v 18.511 H 147.692 V 304.641 z" style="stroke: none; stroke-width: 1; stroke-dasharray: none; stroke-linecap: butt; stroke-linejoin: miter; stroke-miterlimit: 10; fill: #B7BBBD; fill-rule: nonzero; opacity: 1;" transform=" matrix(1 0 0 1 0 0) " stroke-linecap="round" />
  <path d="M 0 286.523 c 0 10.24 8.271 18.511 18.511 18.511 h 356.825 c 10.24 0 18.511 -8.271 18.511 -18.511 v -24.418 H 0 V 286.523 z" style="stroke: none; stroke-width: 1; stroke-dasharray: none; stroke-linecap: butt; stroke-linejoin: miter; stroke-miterlimit: 10; fill: #465762; fill-rule: nonzero; opacity: 1;" transform=" matrix(1 0 0 1 0 0) " stroke-linecap="round" />
</g>
<g style="stroke: none; stroke-width: 1; stroke-dasharray: none; stroke-linecap: butt; stroke-linejoin: miter; stroke-miterlimit: 10; fill: none; fill-rule: nonzero; opacity: 1;" transform="translate(76.91 61.38000000000001) scale(5.81 3.05)" >
  <rect x="0" y="0" rx="0" ry="0" width="60" height="60" style="stroke: none; stroke-width: 1; stroke-dasharray: none; stroke-linecap: butt; stroke-linejoin: miter; stroke-miterlimit: 10; fill: #f0f0f8; fill-rule: nonzero; opacity: 1;" transform=" matrix(1 0 0 1 0 0) "/>
</g>
<g style="stroke: none; stroke-width: 1; stroke-dasharray: none; stroke-linecap: butt; stroke-linejoin: miter; stroke-miterlimit: 10; fill: none; fill-rule: nonzero; opacity: 1;" transform="translate(10 195.11) scale(0.34 0.34)" >
  <polygon points="294.23,262.25 219.98,262.25 214.72,299.68 299.48,299.68 " style="stroke: none; stroke-width: 1; stroke-dasharray: none; stroke-linecap: butt; stroke-linejoin: miter; stroke-miterlimit: 10; fill: #B88C1D; fill-rule: nonzero; opacity: 1;" transform="  matrix(1 0 0 1 0 0) "/>
  <polygon points="282.63,183.64 231.57,183.64 218.61,228.57 295.6,228.57 " style="stroke: none; stroke-width: 1; stroke-dasharray: none; stroke-linecap: butt; stroke-linejoin: miter; stroke-miterlimit: 10; fill: #B88C1D; fill-rule: nonzero; opacity: 1;" transform="  matrix(1 0 0 1 0 0) "/>
  <path d="M 262.308 56.338 c -37.263 0 -74.552 -14.583 -85.775 -20.202 c -9.496 -4.752 -8.283 -14.759 -3.53 -24.253 c 4.753 -9.491 11.244 -14.879 20.741 -10.124 c 0.321 0.16 33.788 16.133 68.564 16.133 c 10.618 0 19.224 8.606 19.224 19.224 S 272.926 56.338 262.308 56.338 z" style="stroke: none; stroke-width: 1; stroke-dasharray: none; stroke-linecap: butt; stroke-linejoin: miter; stroke-miterlimit: 10; fill: #B88C1D; fill-rule: nonzero; opacity: 1;" transform=" matrix(1 0 0 1 0 0) " stroke-linecap="round" />
  <circle cx="257.10699999999997" cy="98.467" r="93.467" style="stroke: none; stroke-width: 1; stroke-dasharray: none; stroke-linecap: butt; stroke-linejoin: miter; stroke-miterlimit: 10; fill: #F9BE00; fill-rule: nonzero; opacity: 1;" transform="  matrix(1 0 0 1 0 0) "/>
  <path d="M 168.621 155.861 c -9.151 0 -10.791 -8.101 -12.439 -17.423 c -1.847 -10.456 -1.339 -18.885 9.114 -20.734 c 18.529 -3.273 53.434 -14.156 86.293 -30.306 c 36.711 -18.044 60.944 -37.722 68.236 -55.408 c 4.047 -9.817 13.963 -9.206 23.781 -5.161 c 9.816 4.047 15.812 10.001 11.764 19.818 c -25.649 62.203 -145.101 102.153 -183.382 108.918 C 170.86 155.765 169.73 155.861 168.621 155.861 z" style="stroke: none; stroke-width: 1; stroke-dasharray: none; stroke-linecap: butt; stroke-linejoin: miter; stroke-miterlimit: 10; fill: #B88C1D; fill-rule: nonzero; opacity: 1;" transform=" matrix(1 0 0 1 0 0) " stroke-linecap="round" />
  <path d="M 336.421 169.374 c -0.626 0 -1.258 -0.03 -1.895 -0.091 c -8.293 -0.811 -24.701 -5.389 -32.023 -9.573 c -9.218 -5.267 -6.214 -15.258 -0.946 -24.477 c 5.237 -9.165 10.669 -14.135 19.864 -8.993 c 2.915 1.432 13.04 4.406 16.849 4.779 c 10.566 1.033 13.331 11.67 12.297 22.236 C 349.596 163.184 346.195 169.374 336.421 169.374 z" style="stroke: none; stroke-width: 1; stroke-dasharray: none; stroke-linecap: butt; stroke-linejoin: miter; stroke-miterlimit: 10; fill: #B88C1D; fill-rule: nonzero; opacity: 1;" transform=" matrix(1 0 0 1 0 0) " stroke-linecap="round" />
  <path d="M 184.846 113.064 l 10.944 36.774 c 4.908 -1.403 10.176 -3.02 15.707 -4.842 l -10.943 -36.771 C 195.014 110.066 189.741 111.684 184.846 113.064 z M 306.553 50.714 c -3.55 3.6 -7.679 7.226 -12.348 10.855 l 26.01 28.239 c 4.36 -3.514 8.483 -7.149 12.302 -10.906 L 306.553 50.714 z M 251.59 87.398 c -3.546 1.743 -7.116 3.42 -10.686 5.037 l 18.976 33.525 c 4.948 -2.289 9.897 -4.696 14.799 -7.221 l -18.921 -33.429 C 254.386 86.008 253.001 86.705 251.59 87.398 z" style="stroke: none; stroke-width: 1; stroke-dasharray: none; stroke-linecap: butt; stroke-linejoin: miter; stroke-miterlimit: 10; fill: #c9d6c3; fill-rule: nonzero; opacity: 1;" transform=" matrix(1 0 0 1 0 0) " stroke-linecap="round" />
  <path d="M 331.675 228.569 c 2.002 0 2.308 1.472 2.263 2.198 c -1.132 17.579 -15.75 31.486 -33.616 31.486 h -86.438 c -17.866 0 -32.483 -13.907 -33.616 -31.486 c -0.046 -0.726 0.26 -2.198 2.262 -2.198 H 331.675 z" style="stroke: none; stroke-width: 1; stroke-dasharray: none; stroke-linecap: butt; stroke-linejoin: miter; stroke-miterlimit: 10; fill: #F9BE00; fill-rule: nonzero; opacity: 1;" transform=" matrix(1 0 0 1 0 0) " stroke-linecap="round" />
  <path d="M 202.454 475.475 v -170.32 c 0 -3.013 2.465 -5.479 5.479 -5.479 h 98.338 c 3.013 0 5.479 2.465 5.479 5.479 v 170.32 H 202.454 z" style="stroke: none; stroke-width: 1; stroke-dasharray: none; stroke-linecap: butt; stroke-linejoin: miter; stroke-miterlimit: 10; fill: #F9E0A4; fill-rule: nonzero; opacity: 1;" transform=" matrix(1 0 0 1 0 0) " stroke-linecap="round" />
  <path d="M 230.434 453.138 c -4.54 0 -8.218 -3.678 -8.218 -8.218 v -84.093 c 0 -4.54 3.678 -8.218 8.218 -8.218 s 8.218 3.678 8.218 8.218 v 84.093 C 238.652 449.459 234.973 453.138 230.434 453.138 z" style="stroke: none; stroke-width: 1; stroke-dasharray: none; stroke-linecap: butt; stroke-linejoin: miter; stroke-miterlimit: 10; fill: #c9d6c3; fill-rule: nonzero; opacity: 1;" transform=" matrix(1 0 0 1 0 0) " stroke-linecap="round" />
  <path d="M 230.434 344.573 c -4.54 0 -8.218 -3.678 -8.218 -8.218 v -5.027 c 0 -4.54 3.678 -8.218 8.218 -8.218 s 8.218 3.678 8.218 8.218 v 5.027 C 238.652 340.894 234.973 344.573 230.434 344.573 z" style="stroke: none; stroke-width: 1; stroke-dasharray: none; stroke-linecap: butt; stroke-linejoin: miter; stroke-miterlimit: 10; fill: #c9d6c3; fill-rule: nonzero; opacity: 1;" transform=" matrix(1 0 0 1 0 0) " stroke-linecap="round" />
  <path d="M 325.154 506.522 c 0 3.013 -2.465 5.479 -5.479 5.479 H 194.528 c -3.013 0 -5.479 -2.465 -5.479 -5.479 v -25.568 c 0 -3.013 2.465 -5.479 5.479 -5.479 h 125.148 c 3.013 0 5.479 2.465 5.479 5.479 L 325.154 506.522 L 325.154 506.522 z" style="stroke: none; stroke-width: 1; stroke-dasharray: none; stroke-linecap: butt; stroke-linejoin: miter; stroke-miterlimit: 10; fill: #F9E0A4; fill-rule: nonzero; opacity: 1;" transform=" matrix(1 0 0 1 0 0) " stroke-linecap="round" />
  <circle cx="217.228" cy="60.507999999999996" r="20.398" style="stroke: none; stroke-width: 1; stroke-dasharray: none; stroke-linecap: butt; stroke-linejoin: miter; stroke-miterlimit: 10; fill: #FFFFFF; fill-rule: nonzero; opacity: 1;" transform="  matrix(1 0 0 1 0 0) "/>
  <path d="M 325.154 506.522 c 0 3.013 -2.465 5.479 -5.479 5.479 H 194.528 c -3.013 0 -5.479 -2.465 -5.479 -5.479 v -25.568 c 0 -3.013 2.465 -5.479 5.479 -5.479 h 125.148 c 3.013 0 5.479 2.465 5.479 5.479 L 325.154 506.522 L 325.154 506.522 z" style="stroke: none; stroke-width: 1; stroke-dasharray: none; stroke-linecap: butt; stroke-linejoin: miter; stroke-miterlimit: 10; fill: #c9d6c3; fill-rule: nonzero; opacity: 1;" transform=" matrix(1 0 0 1 0 0) " stroke-linecap="round" />
  <path d="M 322.016 126.511 l -10.179 37.225 c 5.085 1.788 10.861 3.383 15.829 4.424 l 10.172 -37.194 C 334.006 130.468 325.39 127.961 322.016 126.511 z" style="stroke: none; stroke-width: 1; stroke-dasharray: none; stroke-linecap: butt; stroke-linejoin: miter; stroke-miterlimit: 10; fill: #c9d6c3; fill-rule: nonzero; opacity: 1;" transform=" matrix(1 0 0 1 0 0) " stroke-linecap="round" />
</g>
<g style="stroke: none; stroke-width: 1; stroke-dasharray: none; stroke-linecap: butt; stroke-linejoin: miter; stroke-miterlimit: 10; fill: none; fill-rule: nonzero; opacity: 1;" transform="translate(231.46 42.379999999999995) scale(0.38 0.38)" >
  <circle cx="256" cy="256" r="256" style="stroke: none; stroke-width: 1; stroke-dasharray: none; stroke-linecap: butt; stroke-linejoin: miter; stroke-miterlimit: 10; fill: #f0f0f6; fill-rule: nonzero; opacity: 1;" transform="  matrix(1 0 0 1 0 0) "/>
  <path d="M 511.745 267.128 L 362.561 117.944 L 231.364 281.931 l -84.266 109.902 L 267.014 511.75 C 399.596 506.135 506.073 399.694 511.745 267.128 z" style="stroke: none; stroke-width: 1; stroke-dasharray: none; stroke-linecap: butt; stroke-linejoin: miter; stroke-miterlimit: 10; fill: #f0f0f6; fill-rule: nonzero; opacity: 1;" transform=" matrix(1 0 0 1 0 0) " stroke-linecap="round" />
  <path d="M 350.672 398.222 H 170.667 c -10.552 0 -19.106 -8.554 -19.106 -19.106 V 227.556 c 0 -10.552 8.554 -19.106 19.106 -19.106 h 151.561 c 10.552 0 19.106 8.554 19.106 19.106 v 48.974 c 0 5.067 2.014 9.926 5.596 13.51 l 17.253 17.253 c 3.582 3.582 5.596 8.444 5.596 13.51 v 58.313 C 369.778 389.668 361.224 398.222 350.672 398.222 z" style="stroke: none; stroke-width: 1; stroke-dasharray: none; stroke-linecap: butt; stroke-linejoin: miter; stroke-miterlimit: 10; fill: #C92F00; fill-rule: nonzero; opacity: 1;" transform=" matrix(1 0 0 1 0 0) " stroke-linecap="round" />
  <path d="M 350.672 199.111 H 170.667 c -10.552 0 -19.106 8.554 -19.106 19.106 v 151.561 c 0 10.552 8.554 19.106 19.106 19.106 h 151.561 c 10.552 0 19.106 -8.554 19.106 -19.106 v -48.974 c 0 -5.067 2.014 -9.926 5.596 -13.51 l 17.253 -17.253 c 3.582 -3.582 5.596 -8.444 5.596 -13.51 v -58.313 C 369.778 207.665 361.224 199.111 350.672 199.111 z" style="stroke: none; stroke-width: 1; stroke-dasharray: none; stroke-linecap: butt; stroke-linejoin: miter; stroke-miterlimit: 10; fill: #E09112; fill-rule: nonzero; opacity: 1;" transform=" matrix(1 0 0 1 0 0) " stroke-linecap="round" />
  <path d="M 350.672 113.778 H 161.328 c -10.552 0 -19.106 8.554 -19.106 19.106 v 246.232 c 0 10.552 8.554 19.106 19.106 19.106 h 160.899 c 10.552 0 19.106 -8.554 19.106 -19.106 V 235.47 c 0 -5.067 2.014 -9.926 5.596 -13.51 l 17.253 -17.253 c 3.582 -3.582 5.596 -8.444 5.596 -13.51 v -58.313 C 369.778 122.332 361.224 113.778 350.672 113.778 z" style="stroke: none; stroke-width: 1; stroke-dasharray: none; stroke-linecap: butt; stroke-linejoin: miter; stroke-miterlimit: 10; fill: #FEE187; fill-rule: nonzero; opacity: 1;" transform=" matrix(1 0 0 1 0 0) " stroke-linecap="round" />
  <path d="M 350.672 113.778 H 237.613 v 284.444 h 84.614 c 10.552 0 19.106 -8.554 19.106 -19.106 V 235.47 c 0 -5.067 2.014 -9.928 5.596 -13.51 l 17.253 -17.253 c 3.582 -3.582 5.596 -8.442 5.596 -13.51 v -58.313 C 369.778 122.332 361.224 113.778 350.672 113.778 z" style="stroke: none; stroke-width: 1; stroke-dasharray: none; stroke-linecap: butt; stroke-linejoin: miter; stroke-miterlimit: 10; fill: #FFC61B; fill-rule: nonzero; opacity: 1;" transform=" matrix(1 0 0 1 0 0) " stroke-linecap="round" />
  <rect x="170.67" y="170.67" rx="0" ry="0" width="142.22" height="85.33" style="stroke: none; stroke-width: 1; stroke-dasharray: none; stroke-linecap: butt; stroke-linejoin: miter; stroke-miterlimit: 10; fill: #E09112; fill-rule: nonzero; opacity: 1;" transform=" matrix(1 0 0 1 0 0) "/>
  <rect x="237.61" y="170.67" rx="0" ry="0" width="75.28" height="85.33" style="stroke: none; stroke-width: 1; stroke-dasharray: none; stroke-linecap: butt; stroke-linejoin: miter; stroke-miterlimit: 10; fill: #FF5419; fill-rule: nonzero; opacity: 1;" transform=" matrix(1 0 0 1 0 0) "/>
  <path d="M 284.444 201.697 h -85.333 c -1.427 0 -2.586 -1.158 -2.586 -2.586 s 1.158 -2.586 2.586 -2.586 h 85.333 c 1.427 0 2.586 1.158 2.586 2.586 S 285.872 201.697 284.444 201.697 z" style="stroke: none; stroke-width: 1; stroke-dasharray: none; stroke-linecap: butt; stroke-linejoin: miter; stroke-miterlimit: 10; fill: #FFFFFF; fill-rule: nonzero; opacity: 1;" transform=" matrix(1 0 0 1 0 0) " stroke-linecap="round" />
  <path d="M 284.444 230.141 h -85.333 c -1.427 0 -2.586 -1.158 -2.586 -2.586 s 1.158 -2.586 2.586 -2.586 h 85.333 c 1.427 0 2.586 1.158 2.586 2.586 S 285.872 230.141 284.444 230.141 z" style="stroke: none; stroke-width: 1; stroke-dasharray: none; stroke-linecap: butt; stroke-linejoin: miter; stroke-miterlimit: 10; fill: #FFFFFF; fill-rule: nonzero; opacity: 1;" transform=" matrix(1 0 0 1 0 0) " stroke-linecap="round" />
  <path d="M 284.444 196.525 h -46.832 v 5.172 h 46.832 c 1.427 0 2.586 -1.158 2.586 -2.586 S 285.872 196.525 284.444 196.525 z" style="stroke: none; stroke-width: 1; stroke-dasharray: none; stroke-linecap: butt; stroke-linejoin: miter; stroke-miterlimit: 10; fill: #D0D1D3; fill-rule: nonzero; opacity: 1;" transform=" matrix(1 0 0 1 0 0) " stroke-linecap="round" />
  <path d="M 284.444 224.97 h -46.832 v 5.172 h 46.832 c 1.427 0 2.586 -1.158 2.586 -2.586 S 285.872 224.97 284.444 224.97 z" style="stroke: none; stroke-width: 1; stroke-dasharray: none; stroke-linecap: butt; stroke-linejoin: miter; stroke-miterlimit: 10; fill: #D0D1D3; fill-rule: nonzero; opacity: 1;" transform=" matrix(1 0 0 1 0 0) " stroke-linecap="round" />
</g>
  <g transform="translate(171.07 141.32)">
   <text font-family="ADAMCG PRO" font-size="40" font-weight="normal" style="stroke: none; stroke-width: 1; stroke-dasharray: none; stroke-linecap: butt; stroke-linejoin: miter; stroke-miterlimit: 10; fill: #000000; fill-rule: nonzero; opacity: 1;" ><tspan x="-78.66" y="-17.23" style="stroke: none; stroke-width: 0; stroke-dasharray: none; stroke-linecap: butt; stroke-linejoin: miter; stroke-miterlimit: 4; fill: #000000; fill-rule: ; opacity: 1;">D</tspan><tspan x="-51.67" y="-17.23" style="stroke: none; stroke-width: 0; stroke-dasharray: none; stroke-linecap: butt; stroke-linejoin: miter; stroke-miterlimit: 4; fill: #000000; fill-rule: ; opacity: 1;">r</tspan><tspan x="-26.04" y="-17.23" style="stroke: none; stroke-width: 0; stroke-dasharray: none; stroke-linecap: butt; stroke-linejoin: miter; stroke-miterlimit: 4; fill: #000000; fill-rule: ; opacity: 1;"> </tspan><tspan x="-78.66" y="35.2" style="stroke: none; stroke-width: 0; stroke-dasharray: none; stroke-linecap: butt; stroke-linejoin: miter; stroke-miterlimit: 4; fill: #000000; fill-rule: ; opacity: 1;">P</tspan><tspan x="-56.24" y="35.2" style="stroke: none; stroke-width: 0; stroke-dasharray: none; stroke-linecap: butt; stroke-linejoin: miter; stroke-miterlimit: 4; fill: #000000; fill-rule: ; opacity: 1;">h</tspan><tspan x="-28.94" y="35.2" style="stroke: none; stroke-width: 0; stroke-dasharray: none; stroke-linecap: butt; stroke-linejoin: miter; stroke-miterlimit: 4; fill: #000000; fill-rule: ; opacity: 1;">y</tspan><tspan x="-1.42" y="35.2" style="stroke: none; stroke-width: 0; stroke-dasharray: none; stroke-linecap: butt; stroke-linejoin: miter; stroke-miterlimit: 4; fill: #000000; fill-rule: ; opacity: 1;">s</tspan><tspan x="19.7" y="35.2" style="stroke: none; stroke-width: 0; stroke-dasharray: none; stroke-linecap: butt; stroke-linejoin: miter; stroke-miterlimit: 4; fill: #000000; fill-rule: ; opacity: 1;">i</tspan><tspan x="30.48" y="35.2" style="stroke: none; stroke-width: 0; stroke-dasharray: none; stroke-linecap: butt; stroke-linejoin: miter; stroke-miterlimit: 4; fill: #000000; fill-rule: ; opacity: 1;">c</tspan><tspan x="57.55" y="35.2" style="stroke: none; stroke-width: 0; stroke-dasharray: none; stroke-linecap: butt; stroke-linejoin: miter; stroke-miterlimit: 4; fill: #000000; fill-rule: ; opacity: 1;">s</tspan></text>
 </g>
<g style="stroke: none; stroke-width: 1; stroke-dasharray: none; stroke-linecap: butt; stroke-linejoin: miter; stroke-miterlimit: 10; fill: none; fill-rule: nonzero; opacity: 1;" transform="translate(76.91 40.390000000000015) scale(5.81 0.5)" >
  <rect x="0" y="0" rx="0" ry="0" width="60" height="60" style="stroke: none; stroke-width: 1; stroke-dasharray: none; stroke-linecap: butt; stroke-linejoin: miter; stroke-miterlimit: 10; fill: #00fa00; fill-rule: nonzero; opacity: 1;" transform=" matrix(1 0 0 1 0 0) "/>
</g>
<g style="stroke: none; stroke-width: 1; stroke-dasharray: none; stroke-linecap: butt; stroke-linejoin: miter; stroke-miterlimit: 10; fill: none; fill-rule: nonzero; opacity: 1;" transform="translate(362.91 249.07000000000002) scale(2.33 2.33)" >
  <path d="M 12 0 C 9.694 0 7.781 1.758 7.53 4 L 7.5 5 c 0 2.2 1.8 4 4 4 h 1 h 3 h 2 l 2 -4 h 12 l -1.961 3.921 C 29.521 8.958 29.548 9 29.588 9 h 0.211 H 50.5 V 0 H 12 z" style="stroke: none; stroke-width: 1; stroke-dasharray: none; stroke-linecap: butt; stroke-linejoin: miter; stroke-miterlimit: 10; fill: #EAD8BB; fill-rule: nonzero; opacity: 1;" transform=" matrix(1 0 0 1 0 0) " stroke-linecap="round" />
  <path d="M 29.5 9 v 26.201 c 0 0.505 -0.665 0.69 -0.925 0.256 L 23.5 27 l -5.075 8.458 c -0.26 0.433 -0.925 0.249 -0.925 -0.256 V 9 h -6 c -2.2 0 -4 -1.8 -4 -4 v 48.958 C 7.5 56.19 9.31 58 11.542 58 H 50.5 V 9 H 29.5 z" style="stroke: none; stroke-width: 1; stroke-dasharray: none; stroke-linecap: butt; stroke-linejoin: miter; stroke-miterlimit: 10; fill: #6B4842; fill-rule: nonzero; opacity: 1;" transform=" matrix(1 0 0 1 0 0) " stroke-linecap="round" />
  <path d="M 12.5 9 h -1 c -2.2 0 -4 -1.8 -4 -4 v 48.958 C 7.5 56.19 9.31 58 11.542 58 H 12.5 V 9 z" style="stroke: none; stroke-width: 1; stroke-dasharray: none; stroke-linecap: butt; stroke-linejoin: miter; stroke-miterlimit: 10; fill: #513531; fill-rule: nonzero; opacity: 1;" transform=" matrix(1 0 0 1 0 0) " stroke-linecap="round" />
  <path d="M 50.5 2 h -9 c -0.553 0 -1 0.447 -1 1 s 0.447 1 1 1 h 9 V 2 z" style="stroke: none; stroke-width: 1; stroke-dasharray: none; stroke-linecap: butt; stroke-linejoin: miter; stroke-miterlimit: 10; fill: #D3BEA1; fill-rule: nonzero; opacity: 1;" transform=" matrix(1 0 0 1 0 0) " stroke-linecap="round" />
  <path d="M 50.5 5 h -8 c -0.553 0 -1 0.447 -1 1 s 0.447 1 1 1 h 8 V 5 z" style="stroke: none; stroke-width: 1; stroke-dasharray: none; stroke-linecap: butt; stroke-linejoin: miter; stroke-miterlimit: 10; fill: #D3BEA1; fill-rule: nonzero; opacity: 1;" transform=" matrix(1 0 0 1 0 0) " stroke-linecap="round" />
  <path d="M 19.5 5 l -2 4 v 26.201 c 0 0.505 0.666 0.69 0.925 0.256 L 23.5 27 l 5.075 8.458 c 0.26 0.433 0.925 0.249 0.925 -0.256 V 9 l 2 -4 H 19.5 z" style="stroke: none; stroke-width: 1; stroke-dasharray: none; stroke-linecap: butt; stroke-linejoin: miter; stroke-miterlimit: 10; fill: #DD352E; fill-rule: nonzero; opacity: 1;" transform=" matrix(1 0 0 1 0 0) " stroke-linecap="round" />
  <polygon points="19.5,5 17.5,9 29.5,9 31.5,5 " style="stroke: none; stroke-width: 1; stroke-dasharray: none; stroke-linecap: butt; stroke-linejoin: miter; stroke-miterlimit: 10; fill: #B02721; fill-rule: nonzero; opacity: 1;" transform="  matrix(1 0 0 1 0 0) "/>
</g>
<g style="stroke: none; stroke-width: 1; stroke-dasharray: none; stroke-linecap: butt; stroke-linejoin: miter; stroke-miterlimit: 10; fill: none; fill-rule: nonzero; opacity: 1;" transform="translate(317.0099999999999 273.31) rotate(341.96) scale(0.25 0.25)" >
  <path d="M 63.016 31.508 h 378.092 c 17.329 0 31.508 14.178 31.508 31.508 v 409.6 c 0 17.329 -14.178 31.508 -31.508 31.508 H 63.016 c -17.329 0 -31.508 -14.178 -31.508 -31.508 v -409.6 C 31.509 45.686 45.687 31.508 63.016 31.508 z" style="stroke: none; stroke-width: 1; stroke-dasharray: none; stroke-linecap: butt; stroke-linejoin: miter; stroke-miterlimit: 10; fill: #E2574C; fill-rule: nonzero; opacity: 1;" transform=" matrix(1 0 0 1 0 0) " stroke-linecap="round" />
  <path d="M 441.109 31.508 H 63.016 c -17.329 0 -31.508 14.178 -31.508 31.508 v 19.692 c 0 -17.329 14.178 -31.508 31.508 -31.508 h 378.092 c 17.329 0 31.508 14.178 31.508 31.508 V 63.015 C 472.616 45.686 458.438 31.508 441.109 31.508 z" style="stroke: none; stroke-width: 1; stroke-dasharray: none; stroke-linecap: butt; stroke-linejoin: miter; stroke-miterlimit: 10; fill: #D05046; fill-rule: nonzero; opacity: 1;" transform=" matrix(1 0 0 1 0 0) " stroke-linecap="round" />
  <path d="M 102.401 86.646 h 299.323 c 8.665 0 15.754 7.089 15.754 15.754 v 330.831 c 0 8.665 -7.089 15.754 -15.754 15.754 H 102.401 c -8.665 0 -15.754 -7.089 -15.754 -15.754 V 102.4 C 86.647 93.735 93.736 86.646 102.401 86.646 z" style="stroke: none; stroke-width: 1; stroke-dasharray: none; stroke-linecap: butt; stroke-linejoin: miter; stroke-miterlimit: 10; fill: #F0DDAB; fill-rule: nonzero; opacity: 1;" transform=" matrix(1 0 0 1 0 0) " stroke-linecap="round" />
  <path d="M 133.909 63.015 h 236.308 c 4.332 0 7.877 3.545 7.877 7.877 V 102.4 c 0 12.997 -10.634 23.631 -23.631 23.631 h -204.8 c -12.997 0 -23.631 -10.634 -23.631 -23.631 V 70.892 C 126.032 66.56 129.576 63.015 133.909 63.015 z" style="stroke: none; stroke-width: 1; stroke-dasharray: none; stroke-linecap: butt; stroke-linejoin: miter; stroke-miterlimit: 10; fill: #CCD0D2; fill-rule: nonzero; opacity: 1;" transform=" matrix(1 0 0 1 0 0) " stroke-linecap="round" />
  <path d="M 185.109 200.862 h 173.292 c 4.332 0 7.877 -3.545 7.877 -7.877 s -3.545 -7.877 -7.877 -7.877 H 185.109 c -4.332 0 -7.877 3.545 -7.877 7.877 S 180.776 200.862 185.109 200.862 z M 358.401 224.492 H 185.109 c -4.332 0 -7.877 3.545 -7.877 7.877 s 3.545 7.877 7.877 7.877 h 173.292 c 4.332 0 7.877 -3.545 7.877 -7.877 S 362.733 224.492 358.401 224.492 z M 358.401 263.877 H 185.109 c -4.332 0 -7.877 3.545 -7.877 7.877 s 3.545 7.877 7.877 7.877 h 173.292 c 4.332 0 7.877 -3.545 7.877 -7.877 S 362.733 263.877 358.401 263.877 z M 153.601 185.108 h -7.877 c -4.332 0 -7.877 3.545 -7.877 7.877 s 3.545 7.877 7.877 7.877 h 7.877 c 4.332 0 7.877 -3.545 7.877 -7.877 C 161.478 188.652 157.933 185.108 153.601 185.108 z M 153.601 224.492 h -7.877 c -4.332 0 -7.877 3.545 -7.877 7.877 s 3.545 7.877 7.877 7.877 h 7.877 c 4.332 0 7.877 -3.545 7.877 -7.877 S 157.933 224.492 153.601 224.492 z M 153.601 263.877 h -7.877 c -4.332 0 -7.877 3.545 -7.877 7.877 s 3.545 7.877 7.877 7.877 h 7.877 c 4.332 0 7.877 -3.545 7.877 -7.877 S 157.933 263.877 153.601 263.877 z M 358.401 303.262 H 185.109 c -4.332 0 -7.877 3.545 -7.877 7.877 s 3.545 7.877 7.877 7.877 h 173.292 c 4.332 0 7.877 -3.545 7.877 -7.877 S 362.733 303.262 358.401 303.262 z M 358.401 342.646 H 185.109 c -4.332 0 -7.877 3.545 -7.877 7.877 s 3.545 7.877 7.877 7.877 h 173.292 c 4.332 0 7.877 -3.545 7.877 -7.877 S 362.733 342.646 358.401 342.646 z M 153.601 303.262 h -7.877 c -4.332 0 -7.877 3.545 -7.877 7.877 s 3.545 7.877 7.877 7.877 h 7.877 c 4.332 0 7.877 -3.545 7.877 -7.877 S 157.933 303.262 153.601 303.262 z M 153.601 342.646 h -7.877 c -4.332 0 -7.877 3.545 -7.877 7.877 s 3.545 7.877 7.877 7.877 h 7.877 c 4.332 0 7.877 -3.545 7.877 -7.877 S 157.933 342.646 153.601 342.646 z" style="stroke: none; stroke-width: 1; stroke-dasharray: none; stroke-linecap: butt; stroke-linejoin: miter; stroke-miterlimit: 10; fill: #D8C69A; fill-rule: nonzero; opacity: 1;" transform=" matrix(1 0 0 1 0 0) " stroke-linecap="round" />
  <path d="M 200.863 0 h 102.4 c 12.997 0 23.631 10.634 23.631 23.631 v 39.385 H 177.232 V 23.631 C 177.232 10.634 187.866 0 200.863 0 z" style="stroke: none; stroke-width: 1; stroke-dasharray: none; stroke-linecap: butt; stroke-linejoin: miter; stroke-miterlimit: 10; fill: #CCD0D2; fill-rule: nonzero; opacity: 1;" transform=" matrix(1 0 0 1 0 0) " stroke-linecap="round" />
  <path d="M 126.032 70.892 v 15.754 h 252.062 V 70.892 c 0 -4.332 -3.545 -7.877 -7.877 -7.877 H 133.909 C 129.576 63.015 126.032 66.56 126.032 70.892 z" style="stroke: none; stroke-width: 1; stroke-dasharray: none; stroke-linecap: butt; stroke-linejoin: miter; stroke-miterlimit: 10; fill: #BCC0C2; fill-rule: nonzero; opacity: 1;" transform=" matrix(1 0 0 1 0 0) " stroke-linecap="round" />
  <path d="M 177.232 47.262 h 149.662 v 15.754 H 177.232 V 47.262 z" style="stroke: none; stroke-width: 1; stroke-dasharray: none; stroke-linecap: butt; stroke-linejoin: miter; stroke-miterlimit: 10; fill: #AEB1B3; fill-rule: nonzero; opacity: 1;" transform=" matrix(1 0 0 1 0 0) " stroke-linecap="round" />
</g>
</svg>